<?xml version="1.0" encoding="UTF-8" standalone="no"?>
<!-- Created with Inkscape (http://www.inkscape.org/) -->

<svg
   width="1024"
   height="1024"
   viewBox="0 0 1024 1024"
   version="1.1"
   id="svg1"
   inkscape:version="1.4 (86a8ad7, 2024-10-11)"
   sodipodi:docname="logo_snorklefudge.svg"
   inkscape:export-filename="banner_snorklefudge2200x1200.png"
   inkscape:export-xdpi="96"
   inkscape:export-ydpi="96"
   xml:space="preserve"
   xmlns:inkscape="http://www.inkscape.org/namespaces/inkscape"
   xmlns:sodipodi="http://sodipodi.sourceforge.net/DTD/sodipodi-0.dtd"
   xmlns:xlink="http://www.w3.org/1999/xlink"
   xmlns="http://www.w3.org/2000/svg"
   xmlns:svg="http://www.w3.org/2000/svg"><sodipodi:namedview
     id="namedview1"
     pagecolor="#505050"
     bordercolor="#eeeeee"
     borderopacity="1"
     inkscape:showpageshadow="false"
     inkscape:pageopacity="0"
     inkscape:pagecheckerboard="true"
     inkscape:deskcolor="#d1d1d1"
     inkscape:document-units="px"
     showborder="true"
     inkscape:clip-to-page="false"
     inkscape:zoom="0.38531796"
     inkscape:cx="314.02637"
     inkscape:cy="643.6243"
     inkscape:window-width="2241"
     inkscape:window-height="1360"
     inkscape:window-x="1179"
     inkscape:window-y="0"
     inkscape:window-maximized="0"
     inkscape:current-layer="layer2"
     showguides="true"
     inkscape:lockguides="false" /><defs
     id="defs1"><linearGradient
       id="swatch52"
       inkscape:swatch="solid"
       inkscape:label="40px"
       gradientTransform="rotate(148.83017,1634.4891,912.37651)"><stop
         style="stop-color:#b8b8a8;stop-opacity:1;"
         offset="0"
         id="stop52" /></linearGradient><linearGradient
       id="swatch51"
       inkscape:swatch="solid"
       inkscape:label="64px"
       gradientTransform="matrix(0.45263935,0.19360905,-0.19360905,0.45263937,-356.47581,1642.3447)"><stop
         style="stop-color:#d7d7cb;stop-opacity:1;"
         offset="0"
         id="stop51" /></linearGradient><linearGradient
       id="swatch50"
       inkscape:swatch="solid"
       inkscape:label="130px"
       gradientTransform="translate(1492.6552,-793.04317)"><stop
         style="stop-color:#e9e9dc;stop-opacity:1;"
         offset="0"
         id="stop50" /></linearGradient><linearGradient
       id="swatch49"
       inkscape:swatch="solid"
       inkscape:label="600px"
       gradientTransform="translate(357.86971,5.972925)"><stop
         style="stop-color:#f0f0e7;stop-opacity:1;"
         offset="0"
         id="stop49" /></linearGradient><linearGradient
       id="swatch48"
       inkscape:swatch="solid"
       inkscape:label="bg"><stop
         style="stop-color:#faf9f6;stop-opacity:1;"
         offset="0"
         id="stop48" /></linearGradient><rect
       x="165.16129"
       y="-449.03226"
       width="148.70783"
       height="55.053778"
       id="rect24" /><rect
       x="165.16129"
       y="-449.03226"
       width="147.957"
       height="147.957"
       id="rect23" /><rect
       x="165.16129"
       y="-449.03226"
       width="147.957"
       height="147.957"
       id="rect22" /><rect
       x="520.39689"
       y="1099.2341"
       width="429.95358"
       height="308.89869"
       id="rect1" /><inkscape:path-effect
       effect="envelope"
       id="path-effect10"
       is_visible="true"
       lpeversion="1"
       yy="true"
       xx="true"
       bendpath1="m 141.56804,377.54538 c 30.58117,-1.66687 42.05112,0.78484 106.20088,0"
       bendpath2="m 247.76892,377.54538 c 2.44223,26.21263 1.70378,66.56781 0,106.20088"
       bendpath3="m 141.56804,483.74626 c 20.36454,3.36303 33.00149,2.49778 106.20088,0"
       bendpath4="m 141.56804,377.54538 c -0.006,35.29007 -2.06492,38.60023 0,106.20088"
       bendpath1-nodetypes="cc"
       bendpath2-nodetypes="cc"
       bendpath3-nodetypes="cc"
       bendpath4-nodetypes="cc" /><inkscape:path-effect
       effect="fillet_chamfer"
       id="path-effect9"
       is_visible="true"
       lpeversion="1"
       nodesatellites_param="F,0,0,1,0,18,0,1 @ F,0,0,1,0,18,0,1 @ F,0,0,1,0,18,0,1 @ F,0,0,1,0,18,0,1"
       radius="19"
       unit="px"
       method="auto"
       mode="F"
       chamfer_steps="1"
       flexible="false"
       use_knot_distance="true"
       apply_no_radius="true"
       apply_with_radius="true"
       only_selected="false"
       hide_knots="false" /><rect
       x="1051.7822"
       y="-579.51329"
       width="632.64354"
       height="454.55881"
       id="rect8" /><rect
       x="274.67927"
       y="193.89125"
       width="222.74411"
       height="128.10672"
       id="rect2" /><rect
       x="165.16129"
       y="-449.03226"
       width="148.70783"
       height="55.053778"
       id="rect25" /><rect
       x="165.16129"
       y="-449.03226"
       width="148.70783"
       height="55.053778"
       id="rect26" /><rect
       x="165.16129"
       y="-449.03226"
       width="148.70783"
       height="55.053778"
       id="rect27" /><rect
       x="165.16129"
       y="-449.03226"
       width="148.70783"
       height="55.053778"
       id="rect28" /><linearGradient
       inkscape:collect="always"
       xlink:href="#swatch49"
       id="linearGradient49"
       x1="165.16129"
       y1="-375.05377"
       x2="313.11826"
       y2="-375.05377"
       gradientUnits="userSpaceOnUse"
       gradientTransform="translate(124.90318,-8.724279)" /><linearGradient
       inkscape:collect="always"
       xlink:href="#swatch50"
       id="linearGradient50"
       x1="313.11829"
       y1="-375.05376"
       x2="461.07527"
       y2="-375.05376"
       gradientUnits="userSpaceOnUse"
       gradientTransform="translate(124.90318,-8.724279)" /><linearGradient
       inkscape:collect="always"
       xlink:href="#swatch51"
       id="linearGradient51"
       x1="461.07526"
       y1="-375.05377"
       x2="609.03223"
       y2="-375.05377"
       gradientUnits="userSpaceOnUse"
       gradientTransform="translate(124.90318,-8.724279)" /><linearGradient
       inkscape:collect="always"
       xlink:href="#swatch52"
       id="linearGradient52"
       x1="609.03229"
       y1="-375.05376"
       x2="756.98927"
       y2="-375.05376"
       gradientUnits="userSpaceOnUse"
       gradientTransform="translate(124.90318,-8.724279)" /><clipPath
       clipPathUnits="userSpaceOnUse"
       id="clipPath5"><g
         inkscape:label="Clip"
         id="use5"><rect
           style="fill:none;fill-opacity:1;stroke:none;stroke-width:7.03125;stroke-linecap:round;stroke-linejoin:round;stroke-opacity:1"
           id="rect6"
           width="1920"
           height="1080"
           x="-448"
           y="-28"
           ry="2.5942507"
           inkscape:label="clip1920x1080" /></g></clipPath></defs><g
     inkscape:groupmode="layer"
     id="layer2"
     inkscape:label="background"
     inkscape:highlight-color="#faf9f6"
     style="display:none"><rect
       style="fill:#faf9f6;fill-opacity:1;stroke:none;stroke-width:14.6484;stroke-linecap:round;stroke-linejoin:round;stroke-opacity:1"
       id="rect10"
       width="3000"
       height="3000"
       x="-988"
       y="-988"
       inkscape:label="background-color"
       sodipodi:insensitive="true" /><path
       d="m 223.27887,-275.90593 v 48.75 h -48.75001 v 32.5 h 48.75001 v 48.75 h 32.5 v -48.75 h 48.75 v -32.5 h -48.75 v -48.75 z"
       style="fill:#656565;fill-opacity:1;stroke-width:5.41668;stroke-linecap:round;stroke-linejoin:round"
       id="path28"
       inkscape:label="cross" /><rect
       style="fill:#656565;fill-opacity:1;stroke:none;stroke-width:0;stroke-linecap:round;stroke-linejoin:round;stroke-dasharray:none;stroke-opacity:1"
       id="rect31"
       width="130"
       height="130"
       x="349.4726"
       y="-275.90591"
       inkscape:label="square" /><circle
       style="fill:#656565;fill-opacity:1;stroke:none;stroke-width:0;stroke-linecap:round;stroke-linejoin:round;stroke-dasharray:none;stroke-opacity:1"
       id="path32"
       cx="589.41632"
       cy="-210.90591"
       r="65"
       inkscape:label="circle" /><path
       sodipodi:type="star"
       style="fill:#656565;fill-opacity:1;stroke:none;stroke-width:0;stroke-linecap:round;stroke-linejoin:round;stroke-dasharray:none;stroke-opacity:1"
       id="path33"
       inkscape:flatsided="true"
       sodipodi:sides="3"
       sodipodi:cx="685.37286"
       sodipodi:cy="-233.57333"
       sodipodi:r1="121.1923"
       sodipodi:r2="60.596149"
       sodipodi:arg1="2.6179939"
       sodipodi:arg2="3.6651914"
       inkscape:rounded="-3.469447e-18"
       inkscape:randomized="0"
       d="m 580.41725,-172.97719 104.95562,-181.78844 104.9556,181.78845 z"
       inkscape:transform-center-y="-21.666668"
       transform="matrix(0.71511694,0,0,0.71511694,284.2938,-22.207012)"
       inkscape:transform-center-x="-8.3169554e-06"
       inkscape:label="triangle" /><rect
       style="display:inline;fill:#656565;fill-opacity:1;stroke:#656565;stroke-width:8;stroke-linecap:round;stroke-linejoin:round;stroke-dasharray:none;stroke-opacity:1"
       id="rect7"
       width="739.78497"
       height="147.957"
       x="142.10748"
       y="-457.75653"
       ry="2.8189697"
       inkscape:label="pallete-bg" /><rect
       style="fill:#faf9f6;fill-opacity:1;stroke:none;stroke-width:5;stroke-linecap:round;stroke-linejoin:round;stroke-dasharray:none;stroke-opacity:1"
       id="rect16"
       width="147.95699"
       height="147.95699"
       x="142.10748"
       y="-457.75653"
       ry="20"
       inkscape:label="bg-color" /><rect
       style="fill:url(#linearGradient49);fill-opacity:1;stroke:none;stroke-width:5;stroke-linecap:round;stroke-linejoin:round;stroke-dasharray:none;stroke-opacity:1"
       id="rect17"
       width="147.95699"
       height="147.95699"
       x="290.06445"
       y="-457.75653"
       ry="20"
       inkscape:label="600px-color" /><text
       xml:space="preserve"
       id="text23"
       style="font-style:normal;font-variant:normal;font-weight:bold;font-stretch:normal;font-size:42.6667px;font-family:'Courier New';-inkscape-font-specification:'Courier New Bold';text-align:end;writing-mode:lr-tb;direction:ltr;white-space:pre;shape-inside:url(#rect24);shape-padding:0;display:inline;fill:#000000;fill-opacity:1;stroke:none;stroke-width:5;stroke-linecap:round;stroke-linejoin:round;stroke-dasharray:none;stroke-opacity:1"
       x="62.468796"
       y="0"
       transform="translate(124.15234,84.178947)"
       inkscape:label="600px"><tspan
         x="185.84821"
         y="-411.61946"
         id="tspan1">600px</tspan></text><rect
       style="fill:url(#linearGradient50);fill-opacity:1;stroke:none;stroke-width:5;stroke-linecap:round;stroke-linejoin:round;stroke-dasharray:none;stroke-opacity:1"
       id="rect19"
       width="147.95699"
       height="147.95699"
       x="438.02145"
       y="-457.75653"
       ry="20"
       inkscape:label="130px-color" /><text
       xml:space="preserve"
       id="text26"
       style="font-style:normal;font-variant:normal;font-weight:bold;font-stretch:normal;font-size:42.6667px;font-family:'Courier New';-inkscape-font-specification:'Courier New Bold';text-align:end;writing-mode:lr-tb;direction:ltr;white-space:pre;shape-inside:url(#rect26);shape-padding:0;display:inline;fill:#000000;fill-opacity:1;stroke:none;stroke-width:5;stroke-linecap:round;stroke-linejoin:round;stroke-dasharray:none;stroke-opacity:1"
       x="62.468796"
       y="0"
       transform="translate(272.9009,84.178947)"
       inkscape:label="130px"><tspan
         x="185.84821"
         y="-411.61946"
         id="tspan2">130px</tspan></text><rect
       style="fill:url(#linearGradient51);fill-opacity:1;stroke:none;stroke-width:5;stroke-linecap:round;stroke-linejoin:round;stroke-dasharray:none;stroke-opacity:1"
       id="rect20"
       width="147.95699"
       height="147.95699"
       x="585.97845"
       y="-457.75653"
       ry="20"
       inkscape:label="64px-color" /><text
       xml:space="preserve"
       id="text27"
       style="font-style:normal;font-variant:normal;font-weight:bold;font-stretch:normal;font-size:42.6667px;font-family:'Courier New';-inkscape-font-specification:'Courier New Bold';text-align:end;writing-mode:lr-tb;direction:ltr;white-space:pre;shape-inside:url(#rect27);shape-padding:0;display:inline;fill:#000000;fill-opacity:1;stroke:none;stroke-width:5;stroke-linecap:round;stroke-linejoin:round;stroke-dasharray:none;stroke-opacity:1"
       x="62.468796"
       y="0"
       transform="translate(420.85793,84.178947)"
       inkscape:label="64px"><tspan
         x="211.4524"
         y="-411.61946"
         id="tspan3">64px</tspan></text><rect
       style="fill:url(#linearGradient52);fill-opacity:1;stroke:none;stroke-width:5;stroke-linecap:round;stroke-linejoin:round;stroke-dasharray:none;stroke-opacity:1"
       id="rect21"
       width="147.95699"
       height="147.95699"
       x="733.93549"
       y="-457.75653"
       ry="20"
       inkscape:label="40px-color" /><text
       xml:space="preserve"
       id="text28"
       style="font-style:normal;font-variant:normal;font-weight:bold;font-stretch:normal;font-size:42.6667px;font-family:'Courier New';-inkscape-font-specification:'Courier New Bold';text-align:end;writing-mode:lr-tb;direction:ltr;white-space:pre;shape-inside:url(#rect28);shape-padding:0;display:inline;fill:#000000;fill-opacity:1;stroke:none;stroke-width:5;stroke-linecap:round;stroke-linejoin:round;stroke-dasharray:none;stroke-opacity:1"
       x="62.468796"
       y="0"
       transform="translate(568.81496,84.178947)"
       inkscape:label="40px"><tspan
         x="211.4524"
         y="-411.61946"
         id="tspan4">40px</tspan></text><g
       id="g53"
       inkscape:label="bg-shapes"><path
         d="M 651.82096,103.01783 763.43722,298.38109 568.07392,409.99738 642.48477,540.23955 837.84806,428.62326 949.46433,623.98651 1079.7065,549.57567 968.09023,354.21242 1163.4535,242.59615 1089.0426,112.35398 893.67939,223.97025 782.06313,28.606988 Z"
         style="fill:url(#swatch49);fill-opacity:1;stroke-width:25.0001;stroke-linecap:round;stroke-linejoin:round"
         id="path37"
         inkscape:label="cross" /><path
         d="m 579.65043,900.70213 9.57504,11.54637 -11.54638,9.57504 6.38336,7.69758 11.54637,-9.57504 9.57504,11.54637 7.69758,-6.38336 -9.57504,-11.54637 11.54637,-9.57504 -6.38336,-7.69758 -11.54637,9.57504 -9.57503,-11.54637 z"
         style="fill:url(#swatch52);fill-opacity:1;stroke-width:1.66667;stroke-linecap:round;stroke-linejoin:round"
         id="path43"
         inkscape:label="cross" /><path
         d="m 192.37031,242.42709 -9.61376,11.51415 -11.51415,-9.61376 -6.40917,7.6761 11.51415,9.61376 -9.61376,11.51415 7.67611,6.40917 9.61375,-11.51415 11.51415,9.61376 6.40917,-7.6761 -11.51415,-9.61376 9.61376,-11.51415 z"
         style="fill:url(#swatch52);fill-opacity:1;stroke-width:1.66667;stroke-linecap:round;stroke-linejoin:round"
         id="path45"
         inkscape:label="cross" /><rect
         style="fill:url(#swatch52);fill-opacity:1;stroke:none;stroke-width:0;stroke-linecap:round;stroke-linejoin:round;stroke-dasharray:none;stroke-opacity:1"
         id="rect31-6"
         width="40"
         height="40"
         x="-55.945042"
         y="127.45577"
         inkscape:label="square"
         transform="rotate(-20.487616)" /><rect
         style="fill:url(#swatch50);fill-opacity:1;stroke:none;stroke-width:0;stroke-linecap:round;stroke-linejoin:round;stroke-dasharray:none;stroke-opacity:1"
         id="rect38"
         width="130"
         height="130"
         x="425.40491"
         y="95.006302"
         inkscape:label="square"
         transform="rotate(29.662852)" /><rect
         style="fill:url(#swatch51);fill-opacity:1;stroke:none;stroke-width:0;stroke-linecap:round;stroke-linejoin:round;stroke-dasharray:none;stroke-opacity:1"
         id="rect46"
         width="64"
         height="64"
         x="676.42944"
         y="-801.21722"
         inkscape:label="square"
         transform="rotate(112.87115)" /><circle
         style="fill:url(#swatch51);fill-opacity:1;stroke:none;stroke-width:0;stroke-linecap:round;stroke-linejoin:round;stroke-dasharray:none;stroke-opacity:1"
         id="path32-1"
         cx="230.50873"
         cy="22.028076"
         r="32"
         inkscape:label="circle" /><circle
         style="fill:url(#swatch50);fill-opacity:1;stroke:none;stroke-width:0;stroke-linecap:round;stroke-linejoin:round;stroke-dasharray:none;stroke-opacity:1"
         id="circle39"
         cx="865.11487"
         cy="914.36157"
         r="65"
         inkscape:label="circle" /><circle
         style="fill:url(#swatch52);fill-opacity:1;stroke:none;stroke-width:0;stroke-linecap:round;stroke-linejoin:round;stroke-dasharray:none;stroke-opacity:1"
         id="circle44"
         cx="392.7153"
         cy="788.48035"
         r="20"
         inkscape:label="circle" /><path
         sodipodi:type="star"
         style="fill:url(#swatch50);fill-opacity:1;stroke:none;stroke-width:0;stroke-linecap:round;stroke-linejoin:round;stroke-dasharray:none;stroke-opacity:1"
         id="path33-2"
         inkscape:flatsided="true"
         sodipodi:sides="3"
         sodipodi:cx="685.37286"
         sodipodi:cy="-233.57333"
         sodipodi:r1="121.1923"
         sodipodi:r2="60.596149"
         sodipodi:arg1="2.6179939"
         sodipodi:arg2="3.6651914"
         inkscape:rounded="-3.469447e-18"
         inkscape:randomized="0"
         d="m 580.41725,-172.97719 104.95562,-181.78844 104.9556,181.78845 z"
         inkscape:transform-center-y="-49.732826"
         transform="matrix(0.71141589,0.07266138,-0.07266138,0.71141589,-453.18263,1010.9234)"
         inkscape:transform-center-x="21.505914"
         inkscape:label="triangle" /><path
         sodipodi:type="star"
         style="fill:url(#swatch51);fill-opacity:1;stroke:none;stroke-width:0;stroke-linecap:round;stroke-linejoin:round;stroke-dasharray:none;stroke-opacity:1"
         id="path40"
         inkscape:flatsided="true"
         sodipodi:sides="3"
         sodipodi:cx="685.37286"
         sodipodi:cy="-233.57333"
         sodipodi:r1="121.1923"
         sodipodi:r2="60.596149"
         sodipodi:arg1="2.6179939"
         sodipodi:arg2="3.6651914"
         inkscape:rounded="-3.469447e-18"
         inkscape:randomized="0"
         d="m 580.41725,-172.97719 104.95562,-181.78844 104.9556,181.78845 z"
         inkscape:transform-center-y="-22.129466"
         transform="matrix(0.32602879,0.1328524,-0.1328524,0.32602879,112.06504,148.28502)"
         inkscape:transform-center-x="0.52950249"
         inkscape:label="triangle" /><path
         sodipodi:type="star"
         style="fill:#000000;fill-opacity:1;stroke:none;stroke-width:0;stroke-linecap:round;stroke-linejoin:round;stroke-dasharray:none;stroke-opacity:1"
         id="path41"
         inkscape:flatsided="true"
         sodipodi:sides="3"
         sodipodi:cx="685.37286"
         sodipodi:cy="-233.57333"
         sodipodi:r1="121.1923"
         sodipodi:r2="60.596149"
         sodipodi:arg1="2.6179939"
         sodipodi:arg2="3.6651914"
         inkscape:rounded="-3.469447e-18"
         inkscape:randomized="0"
         d="m 580.41725,-172.97719 104.95562,-181.78844 104.9556,181.78845 z"
         inkscape:transform-center-y="-21.666668"
         transform="matrix(-0.25647848,0,0.24117073,0,720.89736,0.42941925)"
         inkscape:transform-center-x="-8.3169554e-06"
         inkscape:label="triangle" /><path
         sodipodi:type="star"
         style="fill:url(#swatch52);fill-opacity:1;stroke:none;stroke-width:0;stroke-linecap:round;stroke-linejoin:round;stroke-dasharray:none;stroke-opacity:1"
         id="path42"
         inkscape:flatsided="true"
         sodipodi:sides="3"
         sodipodi:cx="685.37286"
         sodipodi:cy="-233.57333"
         sodipodi:r1="121.1923"
         sodipodi:r2="60.596149"
         sodipodi:arg1="2.6179939"
         sodipodi:arg2="3.6651914"
         inkscape:rounded="-3.469447e-18"
         inkscape:randomized="0"
         d="m 580.41725,-172.97719 104.95562,-181.78844 104.9556,181.78845 z"
         inkscape:transform-center-y="-21.666668"
         transform="matrix(0.13404755,0.17449094,-0.17449094,0.13404755,770.78369,616.44198)"
         inkscape:transform-center-x="-8.3169554e-06"
         inkscape:label="triangle" /><path
         d="m 171.80129,581.66695 -4.37014,23.59877 -23.59877,-4.37014 -2.91343,15.73251 23.59877,4.37014 -4.37014,23.59877 15.73251,2.91343 4.37014,-23.59877 23.59877,4.37014 2.91343,-15.73251 -23.59877,-4.37014 4.37014,-23.59877 z"
         style="fill:url(#swatch51);fill-opacity:1;stroke-width:2.66667;stroke-linecap:round;stroke-linejoin:round"
         id="path1"
         inkscape:label="cross" /><circle
         style="fill:url(#swatch52);fill-opacity:1;stroke:none;stroke-width:0;stroke-linecap:round;stroke-linejoin:round;stroke-dasharray:none;stroke-opacity:1"
         id="circle3"
         cx="-55.575188"
         cy="422.59222"
         r="20"
         inkscape:label="circle" /><rect
         style="fill:url(#swatch49);fill-opacity:1;stroke:none;stroke-width:0;stroke-linecap:round;stroke-linejoin:round;stroke-dasharray:none;stroke-opacity:1"
         id="rect4"
         width="600"
         height="600"
         x="-433.53943"
         y="612.03455"
         inkscape:label="square"
         transform="rotate(28.08424)" /><circle
         style="fill:url(#swatch52);fill-opacity:1;stroke:none;stroke-width:0;stroke-linecap:round;stroke-linejoin:round;stroke-dasharray:none;stroke-opacity:1"
         id="circle40"
         cx="1144.3602"
         cy="9.8114328"
         r="20"
         inkscape:label="circle" /><path
         sodipodi:type="star"
         style="fill:url(#swatch49);fill-opacity:1;stroke:none;stroke-width:0;stroke-linecap:round;stroke-linejoin:round;stroke-dasharray:none;stroke-opacity:1"
         id="path8"
         inkscape:flatsided="true"
         sodipodi:sides="3"
         sodipodi:cx="685.37286"
         sodipodi:cy="-233.57333"
         sodipodi:r1="121.1923"
         sodipodi:r2="60.596149"
         sodipodi:arg1="2.6179939"
         sodipodi:arg2="3.6651914"
         inkscape:rounded="-3.469447e-18"
         inkscape:randomized="0"
         d="m 580.41725,-172.97719 104.95562,-181.78844 104.9556,181.78845 z"
         inkscape:transform-center-y="62.692585"
         transform="matrix(2.1969937,-2.4630835,2.4630835,2.1969937,514.54556,3304.4909)"
         inkscape:transform-center-x="-40.666734"
         inkscape:label="triangle" /><circle
         style="fill:url(#swatch50);fill-opacity:1;stroke:none;stroke-width:0;stroke-linecap:round;stroke-linejoin:round;stroke-dasharray:none;stroke-opacity:1"
         id="circle9"
         cx="-434.58368"
         cy="119.41666"
         r="65"
         inkscape:label="circle" /><path
         sodipodi:type="star"
         style="fill:url(#swatch51);fill-opacity:1;stroke:none;stroke-width:0;stroke-linecap:round;stroke-linejoin:round;stroke-dasharray:none;stroke-opacity:1"
         id="path9"
         inkscape:flatsided="true"
         sodipodi:sides="3"
         sodipodi:cx="685.37286"
         sodipodi:cy="-233.57333"
         sodipodi:r1="121.1923"
         sodipodi:r2="60.596149"
         sodipodi:arg1="2.6179939"
         sodipodi:arg2="3.6651914"
         inkscape:rounded="-3.469447e-18"
         inkscape:randomized="0"
         d="m 580.41725,-172.97719 104.95562,-181.78844 104.9556,181.78845 z"
         inkscape:transform-center-y="-0.59607923"
         transform="matrix(0.30969016,-0.16744115,0.16744115,0.30969016,-396.60364,676.89514)"
         inkscape:transform-center-x="-10.14629"
         inkscape:label="triangle" /><path
         d="m -247.5663,980.80175 -7.78207,12.8234 -12.82339,-7.78208 -5.18805,8.54893 12.8234,7.7821 -7.78208,12.8234 8.54893,5.188 7.78207,-12.8234 12.82339,7.7821 5.18805,-8.5489 -12.8234,-7.78211 7.78208,-12.82339 z"
         style="fill:url(#swatch52);fill-opacity:1;stroke-width:1.66667;stroke-linecap:round;stroke-linejoin:round"
         id="path10"
         inkscape:label="cross" /><rect
         style="fill:url(#swatch52);fill-opacity:1;stroke:none;stroke-width:0;stroke-linecap:round;stroke-linejoin:round;stroke-dasharray:none;stroke-opacity:1"
         id="rect11"
         width="40"
         height="40"
         x="-298.5719"
         y="657.33942"
         inkscape:label="square"
         transform="rotate(-18.928045)" /><path
         d="m -103.58239,-78.970097 -27.9252,39.959301 -39.95931,-27.925206 -18.6168,26.639534 39.95931,27.925206 -27.9252,39.959301 26.63954,18.6168 27.9252,-39.9593015 39.959302,27.9252015 18.6168,-26.6395355 -39.959302,-27.9251995 27.925202,-39.959301 z"
         style="fill:url(#swatch50);fill-opacity:1;stroke-width:5.41668;stroke-linecap:round;stroke-linejoin:round"
         id="path11"
         inkscape:label="cross" /><path
         sodipodi:type="star"
         style="fill:url(#swatch52);fill-opacity:1;stroke:none;stroke-width:0;stroke-linecap:round;stroke-linejoin:round;stroke-dasharray:none;stroke-opacity:1"
         id="path12"
         inkscape:flatsided="true"
         sodipodi:sides="3"
         sodipodi:cx="685.37286"
         sodipodi:cy="-233.57333"
         sodipodi:r1="121.1923"
         sodipodi:r2="60.596149"
         sodipodi:arg1="2.6179939"
         sodipodi:arg2="3.6651914"
         inkscape:rounded="-3.469447e-18"
         inkscape:randomized="0"
         d="m 580.41725,-172.97719 104.95562,-181.78844 104.9556,181.78845 z"
         inkscape:transform-center-y="5.10794"
         transform="matrix(0.13387151,0.17462603,-0.17462603,0.13387151,-391.16164,50.046145)"
         inkscape:transform-center-x="1.7344437"
         inkscape:label="triangle" /><path
         d="m -394.25177,219.48876 3.38869,14.61222 -14.61221,3.38869 2.25912,9.74147 14.61222,-3.38869 3.38869,14.61221 9.74147,-2.25912 -3.38869,-14.61222 14.61221,-3.38869 -2.25912,-9.74147 -14.61222,3.38869 -3.38869,-14.61221 z"
         style="fill:url(#swatch52);fill-opacity:1;stroke-width:1.66667;stroke-linecap:round;stroke-linejoin:round"
         id="path13"
         inkscape:label="cross" /><rect
         style="fill:url(#swatch51);fill-opacity:1;stroke:none;stroke-width:0;stroke-linecap:round;stroke-linejoin:round;stroke-dasharray:none;stroke-opacity:1"
         id="rect13"
         width="64"
         height="64"
         x="1185.3379"
         y="603.41077"
         inkscape:label="square"
         transform="rotate(-27.796496)" /><path
         sodipodi:type="star"
         style="fill:url(#swatch50);fill-opacity:1;stroke:none;stroke-width:0;stroke-linecap:round;stroke-linejoin:round;stroke-dasharray:none;stroke-opacity:1"
         id="path79"
         inkscape:flatsided="true"
         sodipodi:sides="3"
         sodipodi:cx="685.37286"
         sodipodi:cy="-233.57333"
         sodipodi:r1="121.1923"
         sodipodi:r2="60.596149"
         sodipodi:arg1="2.6179939"
         sodipodi:arg2="3.6651914"
         inkscape:rounded="-3.469447e-18"
         inkscape:randomized="0"
         d="m 580.41725,-172.97719 104.95562,-181.78844 104.9556,181.78845 z"
         inkscape:transform-center-y="-27.080906"
         transform="matrix(0.66574776,-0.261098,0.261098,0.66574776,1042.2671,681.87784)"
         inkscape:transform-center-x="14.029929"
         inkscape:label="triangle" /><circle
         style="fill:url(#swatch51);fill-opacity:1;stroke:none;stroke-width:0;stroke-linecap:round;stroke-linejoin:round;stroke-dasharray:none;stroke-opacity:1"
         id="circle81"
         cx="1165.8469"
         cy="362.26407"
         r="32"
         inkscape:label="circle" /><rect
         style="fill:url(#swatch52);fill-opacity:1;stroke:none;stroke-width:0;stroke-linecap:round;stroke-linejoin:round;stroke-dasharray:none;stroke-opacity:1"
         id="rect82"
         width="40"
         height="40"
         x="599.95831"
         y="1238.7523"
         inkscape:label="square"
         transform="rotate(-20.487616)" /><path
         d="m 1460.6577,788.48037 -3.7582,14.52164 -14.5216,-3.75817 -2.5054,9.68109 14.5216,3.75808 -3.7581,14.52165 9.681,2.50536 3.7582,-14.52156 14.5216,3.75816 2.5054,-9.68109 -14.5216,-3.75816 3.7581,-14.52155 z"
         style="fill:url(#swatch52);fill-opacity:1;stroke-width:1.66667;stroke-linecap:round;stroke-linejoin:round"
         id="path82"
         inkscape:label="cross" /><path
         d="m 1238.8188,649.22277 -27.9252,39.9593 -39.9593,-27.92521 -18.6168,26.63954 39.9593,27.9252 -27.9252,39.9593 26.6395,18.6168 27.9252,-39.9593 39.9593,27.9252 18.6168,-26.63953 -39.9593,-27.9252 27.9252,-39.9593 z"
         style="fill:url(#swatch50);fill-opacity:1;stroke-width:5.41668;stroke-linecap:round;stroke-linejoin:round"
         id="path83"
         inkscape:label="cross" /><rect
         style="fill:url(#swatch52);fill-opacity:1;stroke:none;stroke-width:0;stroke-linecap:round;stroke-linejoin:round;stroke-dasharray:none;stroke-opacity:1"
         id="rect83"
         width="40"
         height="40"
         x="1255.1539"
         y="-841.34979"
         inkscape:label="square"
         transform="rotate(54.994031)" /><path
         d="m 1128.2439,726.50759 -13.5567,6.42006 -6.42,-13.55662 -9.0378,4.28004 6.4201,13.55667 -13.5567,6.42006 4.2801,9.03776 13.5567,-6.42006 6.42,13.55662 9.0378,-4.28004 -6.4201,-13.55667 13.5567,-6.42006 z"
         style="fill:url(#swatch52);fill-opacity:1;stroke-width:1.66667;stroke-linecap:round;stroke-linejoin:round"
         id="path84"
         inkscape:label="cross" /><path
         sodipodi:type="star"
         style="fill:url(#swatch52);fill-opacity:1;stroke:none;stroke-width:0;stroke-linecap:round;stroke-linejoin:round;stroke-dasharray:none;stroke-opacity:1"
         id="path85"
         inkscape:flatsided="true"
         sodipodi:sides="3"
         sodipodi:cx="685.37286"
         sodipodi:cy="-233.57333"
         sodipodi:r1="121.1923"
         sodipodi:r2="60.596149"
         sodipodi:arg1="2.6179939"
         sodipodi:arg2="3.6651914"
         inkscape:rounded="-3.469447e-18"
         inkscape:randomized="0"
         d="m 580.41725,-172.97719 104.95562,-181.78844 104.9556,181.78845 z"
         inkscape:transform-center-y="-5.0923957"
         transform="matrix(0.21813003,-0.0288985,0.0288985,0.21813003,1080.5209,603.69629)"
         inkscape:transform-center-x="-1.7511442"
         inkscape:label="triangle" /><rect
         style="fill:url(#swatch52);fill-opacity:1;stroke:none;stroke-width:0;stroke-linecap:round;stroke-linejoin:round;stroke-dasharray:none;stroke-opacity:1"
         id="rect85"
         width="40"
         height="40"
         x="-247.08185"
         y="-1478.5974"
         inkscape:label="square"
         transform="rotate(104.43843)" /><circle
         style="fill:url(#swatch51);fill-opacity:1;stroke:none;stroke-width:0;stroke-linecap:round;stroke-linejoin:round;stroke-dasharray:none;stroke-opacity:1"
         id="circle85"
         cx="-93.898682"
         cy="1057.5365"
         r="32"
         inkscape:label="circle" /><path
         d="m 1298.1438,145.66339 -4.3702,23.59877 -23.5987,-4.37014 -2.9135,15.73251 23.5988,4.37014 -4.3701,23.59877 15.7325,2.91343 4.3701,-23.59877 23.5988,4.37014 2.9134,-15.73251 -23.5988,-4.37014 4.3702,-23.59877 z"
         style="fill:url(#swatch51);fill-opacity:1;stroke-width:2.66667;stroke-linecap:round;stroke-linejoin:round"
         id="path86"
         inkscape:label="cross" /><path
         sodipodi:type="star"
         style="fill:url(#swatch51);fill-opacity:1;stroke:none;stroke-width:0;stroke-linecap:round;stroke-linejoin:round;stroke-dasharray:none;stroke-opacity:1"
         id="path87"
         inkscape:flatsided="true"
         sodipodi:sides="3"
         sodipodi:cx="685.37286"
         sodipodi:cy="-233.57333"
         sodipodi:r1="121.1923"
         sodipodi:r2="60.596149"
         sodipodi:arg1="2.6179939"
         sodipodi:arg2="3.6651914"
         inkscape:rounded="-3.469447e-18"
         inkscape:randomized="0"
         d="m 580.41725,-172.97719 104.95562,-181.78844 104.9556,181.78845 z"
         inkscape:transform-center-y="-13.815153"
         transform="matrix(0.27961796,0.21391197,-0.21391197,0.27961796,647.23618,-116.40325)"
         inkscape:transform-center-x="-4.1186265"
         inkscape:label="triangle" /><rect
         style="fill:url(#swatch50);fill-opacity:1;stroke:none;stroke-width:0;stroke-linecap:round;stroke-linejoin:round;stroke-dasharray:none;stroke-opacity:1"
         id="rect87"
         width="130"
         height="130"
         x="181.10452"
         y="108.61766"
         inkscape:label="square"
         transform="rotate(81.040256)" /><path
         d="m 522.81242,22.342094 -9.4385,22.066158 -22.06611,-9.438422 -6.29236,14.710761 22.0662,9.438447 -9.4384,22.066179 14.71078,6.292292 9.4384,-22.06618 22.06619,9.438446 6.29227,-14.710784 -22.0662,-9.438448 9.43849,-22.066155 z"
         style="fill:url(#swatch51);fill-opacity:1;stroke-width:2.66667;stroke-linecap:round;stroke-linejoin:round"
         id="path89"
         inkscape:label="cross" /><rect
         style="fill:url(#swatch52);fill-opacity:1;stroke:none;stroke-width:0;stroke-linecap:round;stroke-linejoin:round;stroke-dasharray:none;stroke-opacity:1"
         id="rect89"
         width="40"
         height="40"
         x="590.92847"
         y="-89.656174"
         inkscape:label="square"
         transform="rotate(21.585002)" /><path
         sodipodi:type="star"
         style="fill:url(#swatch52);fill-opacity:1;stroke:none;stroke-width:0;stroke-linecap:round;stroke-linejoin:round;stroke-dasharray:none;stroke-opacity:1"
         id="path90"
         inkscape:flatsided="true"
         sodipodi:sides="3"
         sodipodi:cx="685.37286"
         sodipodi:cy="-233.57333"
         sodipodi:r1="121.1923"
         sodipodi:r2="60.596149"
         sodipodi:arg1="2.6179939"
         sodipodi:arg2="3.6651914"
         inkscape:rounded="-3.469447e-18"
         inkscape:randomized="0"
         d="m 580.41725,-172.97719 104.95562,-181.78844 104.9556,181.78845 z"
         inkscape:transform-center-y="-21.666668"
         transform="matrix(0.13404755,0.17449094,-0.17449094,0.13404755,770.78369,616.44198)"
         inkscape:transform-center-x="-8.3169554e-06"
         inkscape:label="triangle" /><path
         sodipodi:type="star"
         style="fill:url(#swatch52);fill-opacity:1;stroke:none;stroke-width:0;stroke-linecap:round;stroke-linejoin:round;stroke-dasharray:none;stroke-opacity:1"
         id="path91"
         inkscape:flatsided="true"
         sodipodi:sides="3"
         sodipodi:cx="685.37286"
         sodipodi:cy="-233.57333"
         sodipodi:r1="121.1923"
         sodipodi:r2="60.596149"
         sodipodi:arg1="2.6179939"
         sodipodi:arg2="3.6651914"
         inkscape:rounded="-3.469447e-18"
         inkscape:randomized="0"
         d="m 580.41725,-172.97719 104.95562,-181.78844 104.9556,181.78845 z"
         inkscape:transform-center-y="2.8822697"
         transform="matrix(-0.18370068,0.12111934,-0.12111934,-0.18370068,316.58163,735.45121)"
         inkscape:transform-center-x="-20.596012"
         inkscape:label="triangle" /><path
         sodipodi:type="star"
         style="fill:url(#swatch52);fill-opacity:1;stroke:none;stroke-width:0;stroke-linecap:round;stroke-linejoin:round;stroke-dasharray:none;stroke-opacity:1"
         id="path92"
         inkscape:flatsided="true"
         sodipodi:sides="3"
         sodipodi:cx="685.37286"
         sodipodi:cy="-233.57333"
         sodipodi:r1="121.1923"
         sodipodi:r2="60.596149"
         sodipodi:arg1="2.6179939"
         sodipodi:arg2="3.6651914"
         inkscape:rounded="-3.469447e-18"
         inkscape:randomized="0"
         d="m 580.41725,-172.97719 104.95562,-181.78844 104.9556,181.78845 z"
         inkscape:transform-center-y="-18.082915"
         transform="matrix(-0.06265626,0.21092659,-0.21092659,-0.06265626,996.41348,-87.154786)"
         inkscape:transform-center-x="-25.800084"
         inkscape:label="triangle" /><path
         sodipodi:type="star"
         style="fill:url(#swatch51);fill-opacity:1;stroke:none;stroke-width:0;stroke-linecap:round;stroke-linejoin:round;stroke-dasharray:none;stroke-opacity:1"
         id="path94"
         inkscape:flatsided="true"
         sodipodi:sides="3"
         sodipodi:cx="685.37286"
         sodipodi:cy="-233.57333"
         sodipodi:r1="121.1923"
         sodipodi:r2="60.596149"
         sodipodi:arg1="2.6179939"
         sodipodi:arg2="3.6651914"
         inkscape:rounded="-3.469447e-18"
         inkscape:randomized="0"
         d="m 580.41725,-172.97719 104.95562,-181.78844 104.9556,181.78845 z"
         inkscape:transform-center-y="-13.815153"
         transform="matrix(0.27961796,0.21391197,-0.21391197,0.27961796,847.07115,960.62936)"
         inkscape:transform-center-x="-4.1186265"
         inkscape:label="triangle" /></g><rect
       style="opacity:1;fill:none;fill-opacity:1;stroke:none;stroke-width:0.999277;stroke-linecap:round;stroke-linejoin:round;stroke-dasharray:none;stroke-opacity:1"
       id="rect9"
       width="1919.0007"
       height="1079.0007"
       x="-448.00037"
       y="-28.00036"
       inkscape:label="1920x1080" /><rect
       style="opacity:1;fill:none;fill-opacity:1;stroke:none;stroke-width:1.12751;stroke-linecap:round;stroke-linejoin:round;stroke-dasharray:none;stroke-opacity:1"
       id="rect3"
       width="2198.8726"
       height="1198.8724"
       x="-587.43628"
       y="-87.436264"
       inkscape:label="2200x1200" /></g><g
     inkscape:groupmode="layer"
     id="layer1"
     inkscape:label="LogotypeForPNG"
     style="display:none;opacity:1"><path
       id="shadow-2"
       d="m 608.79202,360.76549 v 36.24771 c -22.92654,-1.33284 -35.76505,9.51176 -37.75702,11.31154 -2.63165,-3.15796 -11.62093,-10.03357 -23.60661,-9.93357 -11.98568,0.0995 -45.68134,0 -45.68134,0 -30.08577,-30.52611 -101.89578,-22.88177 -130.6398,12.61463 -18.16194,-18.31157 -55.10239,-21.46862 -76.09879,-4.3916 -3.86367,-3.86775 -11.35551,-8.22292 -19.57316,-8.22292 h -21.70954 c 0.83214,-11.71796 -0.17198,-16.32356 -1.8095,-23.3521 -47.56859,-45.98185 -181.076727,-45.1267 -190.111805,39.15986 -2.18427,20.37694 5.764223,34.69136 10.772474,41.48609 -9.568734,8.22868 -15.747481,20.00003 -17.110905,32.71952 -1.802957,15.24977 3.25718,29.61835 10.392474,42.81157 24.890689,17.98127 51.259012,23.39972 75.237182,25.97004 25.54658,2.73852 48.38549,-0.93353 67.41412,-11.35124 -18.58312,12.51147 -23.21517,31.30242 -23.21517,46.92965 -0.24064,16.06475 6.46341,30.58323 17.11533,42.215 v 42.64799 c 0,11.98831 9.13921,34.07387 47.6631,34.07387 11.8761,0 38.37155,-6.19941 53.06479,-23.8824 l 7e-5,-51.08313 h 11.42421 c -2.69755,21.98126 -2.72763,39.28746 13.77046,55.73354 24.56898,24.49162 67.47994,16.09382 81.20668,8.31579 5.93789,2.39023 14.61212,4.40606 25.40678,2.78365 20.28605,-2.78897 33.15058,-17.16401 42.95953,-33.67829 19.4543,8.73432 39.74376,7.97995 52.91678,1.53543 7.86661,3.82691 23.46534,8.70185 41.93222,0.0905 -6.47408,16.48442 -5.26795,64.82483 72.27233,64.82483 45.37734,0 69.80395,-19.90581 84.77468,-48.14914 47.66122,36.65877 96.90545,11.89103 112.05712,-1.668 8.10237,-15.72994 7.74322,-28.12478 4.11816,-38.5918 32.33608,-24.02796 25.44382,-77.26459 -16.046,-97.88676 10.96198,-2.89394 17.59573,-9.39671 21.58256,-16.66676 8.51574,9.41957 86.03853,35.43046 127.4383,-22.75552 1.5986,-13.2905 0.9218,-27.77911 -8.74637,-38.02837 17.98317,-24.20161 7.28929,-50.40784 -0.64505,-61.74527 -30.79314,-44.00065 -104.09485,-26.8294 -127.58192,-7.38565 -0.33254,-11.47036 -2.72051,-21.55109 -12.33894,-29.56248 -14.89949,-11.61933 -58.58346,-9.56142 -83.97491,7.93799 -4.61406,-1.022 -9.4793,-1.66574 -14.73593,-1.66585 -10.57254,1.11102 -12.3758,1.72195 -20.52205,2.96712 v -6.48445 c 0,-40.95466 -65.36707,-37.03216 -101.61456,-15.88886 z"
       style="-inkscape-font-specification:'Modak, @wght=428';display:inline;fill:#868679;fill-opacity:1;stroke-width:1.13116;stroke-linecap:round;paint-order:stroke fill markers"
       sodipodi:nodetypes="ccczccccccscscscscsscccscscccscccccccscccccccc"
       inkscape:label="ShadowPNG" /><path
       id="logo-4"
       d="m 328.92468,403.47865 c -9.04902,0 -17.15348,1.96571 -24.31385,5.9001 -7.08189,3.93437 -12.35434,8.89268 -15.81662,14.87286 -2.75394,0 -4.12969,-1.22232 -4.12969,-3.66155 0,-2.12464 1.7321,-4.79925 5.19419,-8.02542 -3.93425,-4.17033 -8.69733,-6.25494 -14.28406,-6.25494 h -21.00707 c -4.6426,7.00308 -6.96459,15.30677 -6.96459,24.90654 0,9.52114 2.32199,17.54498 6.96459,24.07604 v 57.12857 c 0,1.78791 0.25193,4.33379 0.62358,5.95248 1.36918,-0.46638 10.93823,-2.67145 20.40238,-2.238 8.51581,0.39014 17.5943,1.76019 21.07968,4.52711 1.73916,1.38069 1.60253,3.74445 -0.20832,5.06112 0.31921,0.13336 -10.02733,-3.99704 -22.21475,-3.91978 -16.20836,0.10293 -22.46612,4.56556 -26.8867,8.23547 -8.34088,6.92447 -11.55964,15.57667 -13.4481,28.63878 h -10.26761 c -4.56375,7.00308 -6.84757,15.30666 -6.84757,24.90642 0,9.59988 2.28382,17.66206 6.84757,24.19312 h 19.5915 c 0.98238,4.17633 -1.5212,6.07361 -5.66227,6.21715 h -3.66162 v 54.45227 c 0,19.38322 24.67437,20.77308 31.75032,20.77308 11.72429,0 20.98162,-2.71296 29.55848,-8.14239 v -65.35195 h 18.86536 c 7.5787,-9.41448 10.22017,-30.7952 6.29943,-42.47811 -5.51482,1.54211 -15.06939,1.8508 -23.56293,1.56993 -5.16622,-0.1708 -18.02062,-0.49194 -20.94446,-5.15557 -0.80451,-1.28318 -0.4229,-4.09602 0.12775,-4.64678 4.34259,1.53973 12.74733,2.83988 22.29237,2.83988 9.75717,0 18.35359,-0.44273 23.78298,-2.56727 4.57069,-11.88469 3.06424,-25.12745 1.33429,-30.83672 -8.85483,-8.35018 -12.12193,-19.70922 -12.12193,-33.15989 0,-8.89154 0.19626,-18.76221 1.61277,-26.70959 l -1.5326,-17.27588 c 1.85184,-1.0582 6.18044,-3.00717 8.22363,0.4666 1.92011,4.10936 1.48809,9.15533 0.94371,13.57057 -1.69744,11.32839 -2.4763,20.66074 -2.4763,28.68141 0,29.72311 19.33912,37.4163 34.69846,37.4163 34.04803,0 34.57331,-33.48542 33.52073,-38.71113 -5.18509,-3.24075 -8.49721,-8.58692 -8.49721,-21.83749 l 0.35482,-24.19685 c 0,-17.70447 -5.35314,-30.76726 -16.05444,-39.18678 -9.61857,-7.57013 -21.62132,-10.02971 -33.1659,-10.02971 z M 93.222737,406.6685 c -0.94171,15.00996 3.16952,28.62113 15.322583,36.51795 16.04803,-4.276 33.06912,0.30088 39.99285,3.55747 18.90881,8.89392 25.08289,32.37453 15.12713,33.17187 -2.62275,-14.18319 -10.29201,-28.65166 -37.63531,-31.08217 -19.50342,-1.73361 -37.163627,9.85109 -39.145227,32.04105 -0.88948,9.96027 1.21165,20.11417 6.832474,30.50451 15.121143,10.32483 32.849313,17.79847 65.070953,21.25245 52.96173,5.67726 84.734,-18.97612 88.31273,-52.36099 2.09359,-19.53084 -2.77145,-34.86634 -14.59736,-46.01171 -10.04406,-9.33802 -23.72119,-14.93486 -41.03268,-16.79051 -4.88265,-0.5235 -8.92057,-0.5528 -12.11351,-0.0871 -0.79327,-6.25109 5.07932,-8.53206 17.64363,-7.18361 15.61289,1.67557 28.44072,7.58608 36.85391,14.62378 6.61845,-5.91537 10.7766,-15.73831 11.9965,-27.1185 0.67566,-6.30313 0.30779,-12.49043 -1.10603,-18.56857 -26.35409,-25.17394 -71.67259,-26.09798 -79.10538,-26.07603 -27.43554,0.0815 -69.758013,11.22364 -72.417263,53.60978 z M 442.2345,388.39426 c -36.18397,5.2343 -62.11811,32.25745 -55.54698,77.68277 5.54399,38.3244 32.5746,63.62287 76.03312,57.33626 40.5507,-5.86605 60.64659,-35.81583 54.86376,-75.79148 -5.92398,-40.95138 -35.91145,-64.93275 -75.3499,-59.22755 z m 6.91833,43.39705 c 4.68266,1.51801 8.35607,28.49614 9.74037,40.2814 1.26696,8.75898 -5.48871,7.43564 -6.57143,6.62607 -1.92871,-15.02182 -4.22554,-29.9474 -7.70225,-44.69041 1.17727,-1.37921 2.69953,-2.81148 4.53331,-2.21706 z m -25.80015,116.838 c -11.59408,1.74266 -20.12398,5.38147 -27.62369,11.60112 l 8.66705,57.66474 c 0.81868,5.44685 1.81039,9.39084 2.9746,11.84171 -0.97245,0.94191 -2.94363,1.82534 -3.87747,1.96572 -2.87912,0.43267 -4.88646,-3.1238 -6.0209,-10.67153 l -5.68115,-37.82024 c -1.39174,-9.25985 -5.18951,-15.73141 -11.39252,-19.41411 -6.13689,-3.77228 -14.03087,-4.9307 -23.67965,-3.48044 l -25.68035,3.85791 c -1.87422,3.94196 -3.0093,8.29124 -3.40868,13.04594 -0.3994,4.75457 -0.27711,9.27195 0.36615,13.55167 1.2514,8.32597 4.38242,15.65211 9.39182,21.98104 3.45166,20.56256 -1.21244,41.36323 12.35451,59.55807 13.56697,18.19483 36.17504,16.22063 45.95947,14.7499 7.26179,-1.09145 15.6939,-2.16017 22.64913,-9.78821 -2.05869,-1.52061 -3.22275,-3.17798 -3.49175,-4.9677 -0.38596,-2.56782 1.58964,-4.71351 4.23538,-5.11111 8.09408,12.28693 21.52985,13.11425 29.59487,11.90211 27.99405,-4.20744 29.31125,-28.79453 25.64639,-42.99945 -6.12894,-2.65946 -10.06514,-9.79036 -11.80777,-21.38457 l -9.13893,-60.81286 c -9.55739,-7.70441 -25.67801,-5.92476 -30.03651,-5.26971 z M 579.97519,411.14912 c -7.71119,5.11462 -12.94172,13.14231 -15.69586,24.07977 -6.79353,-0.70686 -4.72326,-7.7708 -2.97938,-11.91161 1.49498,-3.38351 3.39791,-5.92069 5.36505,-8.12396 -4.01292,-5.98018 -9.98184,-8.88362 -19.26681,-8.88362 h -18.05514 c -4.64259,7.00308 -6.96459,15.30677 -6.96459,24.90654 0,9.52114 2.322,17.54498 6.96459,24.07604 0,36.09986 0.0302,59.32561 0.0302,59.32561 5.77371,-0.0554 11.16454,0.56671 16.7233,2.12567 5.58673,1.65239 8.74257,4.74745 8.74257,7.10806 0,0.94417 -0.43309,1.84852 -1.29857,2.71409 -17.04725,-8.69756 -36.88886,-5.35998 -40.2228,-4.71069 -22.26063,4.33492 -47.11616,21.81825 -47.11616,63.48883 0,13.58379 2.86522,41.6225 24.86848,56.67091 16.3069,11.15262 40.37154,11.97179 49.93299,6.29996 -0.89799,-0.67349 -4.73174,-4.53887 -4.73174,-8.65864 0,-2.59679 1.8497,-4.14817 4.52517,-4.14817 3.34034,8.16558 12.19937,16.16769 27.02797,16.16769 22.07803,0 34.33958,-18.20569 32.22205,-38.71113 -5.66558,-3.54085 -8.49641,-11.17388 -8.49719,-22.89828 l -0.0116,-118.73122 c -8.22203,-1.60861 -10.6277,-3.67715 -10.6277,-5.88278 0,-1.18037 0.91214,-2.68254 1.54162,-3.31203 13.41554,4.26853 35.24697,3.78021 46.62324,-2.24228 2.59322,-5.29946 5.59967,-13.52385 5.41761,-26.15623 -0.12215,-8.48105 -1.29888,-15.69838 -3.53018,-21.64847 -6.21192,-4.65901 -14.64776,-7.1291 -25.30764,-7.40963 -14.15247,-0.37226 -21.77158,3.8121 -25.67945,6.46557 z m -45.70242,173.78796 v 18.49052 c 0,0.63514 -7.50319,4.39758 -7.50319,-7.00829 0.0136,-5.41031 -0.0335,-10.82084 0.008,-16.23103 0.0984,-12.78216 1.02846,-18.0168 4.73328,-18.5248 0.93973,-0.12872 2.58081,-0.0837 4.00295,1.33883 0,0 -1.241,12.9205 -1.241,21.93477 z M 670.0319,352.91823 c -3.43283,0 -17.57555,0.45618 -29.74208,7.55339 v 137.74455 c 0,15.95628 15.4084,25.01976 30.80659,25.01976 13.84876,0 23.29112,-3.19325 31.08098,-11.21924 -6.18519,-8.88137 -9.41346,-22.60757 -9.41346,-32.32984 l 6.18714,-2.95344 c 2.86168,29.09101 17.53585,46.50252 39.18677,46.50252 23.1502,0 33.75476,-15.12296 33.75476,-31.27855 0,-8.7342 -2.12287,-16.95736 -6.37196,-24.66866 -11.01616,-1.80984 -20.14358,-4.83692 -27.3828,-9.0861 10.63753,-3.7 31.27846,-14.08298 31.27846,-38.9489 0,-18.86392 -13.64468,-31.16136 -38.48089,-31.16147 -5.63006,0.43628 -11.18493,1.59503 -16.76034,2.48016 -2.91127,11.17353 -4.86566,21.17056 -8.40661,27.93769 -3.46228,6.76701 -10.49823,14.53058 -15.00505,18.34199 -1.88848,-0.94429 -3.49929,-2.57134 -3.49929,-3.67297 0,-4.35449 6.66176,-9.45034 9.67873,-13.80844 4.00045,-9.08723 5.54902,-20.22413 5.54902,-30.68956 v -12.50977 c 0,-16.31101 -15.11401,-23.25312 -32.45997,-23.25312 z m 32.34674,174.18307 c -7.63255,0 -13.76737,0.90436 -18.40996,2.71409 v 8.2632 c -8.10469,-2.91137 -16.52734,-4.3675 -25.26133,-4.3675 -18.09804,0 -32.81237,4.36829 -44.14316,13.1025 -11.331,8.73431 -16.99441,20.6552 -16.99441,35.763 0,7.29435 1.65929,23.61725 15.57883,32.22216 -7.75286,4.15993 -9.79576,13.26922 -9.79574,19.23663 3e-5,17.91713 15.36224,25.33275 30.98161,28.24196 11.16054,2.07861 26.43735,2.40031 35.35014,0.43946 0.47236,0.78694 0.96593,2.5158 0.96591,3.30263 0,5.03272 -19.71853,6.79608 -36.33744,3.86741 -8.21546,-1.44776 -17.91333,-4.33877 -24.78507,-10.11104 -7.80159,4.42077 -8.3004,14.48476 -8.3004,16.98721 0,33.32911 50.16562,34.93625 59.84278,34.93625 34.38537,0 66.33176,-13.84136 66.33176,-46.14756 0,-15.6891 -7.93306,-31.0383 -24.8461,-35.42321 -8.65551,3.61957 -19.37704,5.9416 -31.65216,5.9416 -12.81087,0 -13.72915,-3.57138 -13.72915,-5.22061 0,-0.62949 0.11906,-1.2963 0.35484,-2.00451 3.54077,0.70821 7.82881,1.06079 12.8647,1.06079 31.45476,0 54.64858,-14.41939 54.64858,-43.90539 0,-7.7113 -1.02298,-14.1642 -3.06896,-19.35743 4.81219,-8.09307 5.31122,-13.41153 5.31122,-19.0026 0,-13.61264 -6.86938,-20.53904 -24.90649,-20.53904 z m -39.77076,41.96773 c 3.37048,0 4.03381,2.24817 3.93755,6.74134 l -0.28371,13.24445 c -0.17106,7.98425 0.0632,10.48331 -3.84312,10.48331 -1.99739,0 -4.29364,0.0227 -4.29364,-1.30557 v -23.54815 c 0,-3.74513 1.36203,-5.61538 4.48292,-5.61538 z M 799.57422,374.73581 c -8.71367,0.6374 -18.14303,3.10037 -26.80209,9.07196 l 6.90422,122.43744 c 1.59377,28.25894 17.53881,39.20545 38.08451,38.0467 35.56024,-2.00554 31.21179,-35.90463 30.4593,-40.48908 -5.85599,-3.21621 -9.1129,-10.67912 -9.7731,-22.38487 l -4.66948,-82.84298 C 832.4514,375.06067 809.92277,373.97883 799.57422,374.73581 Z M 728.2062,601.51505 c -9.59198,40.55254 10.25484,72.52946 53.33115,82.71844 29.47818,6.97255 44.46987,1.4601 54.46362,-3.61642 5.17955,-10.01635 5.71612,-25.73114 2.27245,-30.55743 -15.06951,5.9924 -34.65491,2.76669 -40.60613,1.35897 -15.61722,-3.69401 -26.66211,-12.91574 -25.61615,-17.33787 0.28979,-1.22516 0.79665,-1.99524 1.51747,-2.31028 6.4357,6.29295 15.00323,10.21354 25.87665,12.78544 20.3065,4.80321 49.72615,5.51188 57.45331,-27.15629 6.30592,-26.65982 -8.488,-57.19328 -48.28797,-66.60731 -23.65629,-5.59547 -67.92512,-2.0363 -80.4044,50.72275 z m 70.60274,-7.18521 c 2.57675,0 12.53453,2.02318 11.00011,9.72544 -0.97715,4.90491 -4.93058,6.54474 -11.3348,5.03002 -4.6107,-1.09067 -8.45043,-3.14631 -11.52179,-6.17192 2.40779,-6.17599 6.33988,-8.59066 11.85648,-8.58354 z M 905.39035,391.80673 c -36.46544,2.99371 -64.37033,29.52277 -60.79406,73.08497 3.40905,41.52555 32.15955,65.81301 76.28227,62.19072 30.21392,-2.48039 42.79486,-12.40005 50.68123,-20.26723 1.70853,-10.38501 -1.90356,-25.19362 -7.29681,-29.18331 -10.60728,7.55543 -24.0949,12.16013 -36.93037,13.37544 -16.00505,1.31395 -30.59989,-4.16163 -30.97171,-8.69088 -0.10305,-1.25467 0.13992,-2.14297 0.72854,-2.665 8.06538,3.99592 17.66594,5.53836 28.80213,4.62416 15.45165,-1.26848 48.95145,-8.14498 46.00417,-44.04498 -2.29246,-27.92468 -26.45737,-51.71137 -66.50539,-48.42389 z m 6.35955,44.07053 c 2.27945,-0.11888 10.65031,0.0815 11.17269,6.30935 0.42389,5.05321 -2.71031,7.85349 -9.36009,8.39939 -4.78801,0.39307 -9.13008,-0.38731 -13.03975,-2.34251 0.44193,-7.66832 4.16412,-11.99781 11.22715,-12.36623 z"
       style="-inkscape-font-specification:'Modak, @wght=428';display:inline;fill:#f5f5f5;fill-opacity:1;stroke-width:15.8362;paint-order:stroke fill markers"
       inkscape:label="LogoPNG"
       sodipodi:nodetypes="sccscscscscsscssccsccscssccccsscsccscccsssccccsscscsscsscscscscsssssssscccsscscscccccsscsscscscccsccccscscccscssscscscccsccscscssssscssscccssccsscccscssssssssscsscsscssscsscsscssssscssssscscccsscsssscsssscssscssssccscsssssscsssc" /></g><g
     inkscape:groupmode="layer"
     id="layer5"
     inkscape:label="Logotype"
     style="display:inline">
       
       <path
   id="shadow"
   d="m 593.56053,352.23438 v 32.04493 c -20.26828,-1.17834 -31.61821,8.40888 -33.37921,10 -2.32652,-2.79183 -10.27352,-8.87021 -20.8695,-8.78182 -10.59598,0.0884 -40.38473,-0.002 -40.38473,-0.002 -26.59742,-26.98673 -90.08128,-20.22868 -115.49253,11.15199 -16.05612,-16.18838 -48.71344,-18.97939 -67.27537,-3.88239 -3.41569,-3.41933 -10.03887,-7.26954 -17.30372,-7.26954 h -19.19238 c 0.73565,-10.35921 -0.15204,-14.43086 -1.5997,-20.64447 -42.05316,-40.65038 -160.08145,-39.89435 -168.06894,34.61945 -1.93101,18.01426 5.09588,30.66895 9.52344,36.67588 -8.45927,7.27454 -13.92161,17.68112 -15.12695,28.92579 -1.59391,13.48155 2.87952,26.18417 9.1875,37.84765 22.00469,15.89641 45.3157,20.68667 66.51367,22.95899 22.58454,2.42092 42.77534,-0.82532 59.59766,-10.03516 -16.42846,11.06082 -20.52344,27.673 -20.52344,41.48828 -0.21273,14.20217 5.714,27.03724 15.13086,37.32031 v 37.70313 c 0,10.59829 8.07955,30.12305 42.13672,30.12305 10.4991,0 33.92249,-5.48056 46.91209,-21.11329 l 6e-5,-45.16021 h 10.09961 c -2.38477,19.43267 -2.41136,34.73223 12.17382,49.27148 21.72029,21.65186 59.65586,14.22775 71.79102,7.35156 5.24941,2.11312 12.91789,3.89525 22.46094,2.46094 17.93395,-2.46566 29.30688,-15.17394 37.97851,-29.77344 17.19863,7.7216 35.1356,7.05466 46.78125,1.35743 6.9545,3.38316 20.7446,7.69292 37.07031,0.0801 -5.72343,14.57304 -4.65715,57.3086 63.89258,57.3086 40.11598,0 61.7104,-17.59786 74.94532,-42.56641 42.13505,32.40824 85.66957,10.51228 99.06445,-1.47461 7.16292,-13.90614 6.84541,-24.8638 3.64067,-34.11723 28.58681,-21.24195 22.49369,-68.30596 -14.18552,-86.53707 9.69097,-2.55843 15.55557,-8.30719 19.08013,-14.73432 7.52837,8.3274 76.06264,31.32244 112.66221,-20.11708 1.41325,-11.74947 0.8149,-24.55823 -7.73223,-33.61915 15.89811,-21.39547 6.44412,-44.56313 -0.57026,-54.58605 -27.22278,-38.89895 -92.02538,-23.71865 -112.7892,-6.5293 -0.29398,-10.14037 -2.40507,-19.05232 -10.90828,-26.1348 -13.17193,-10.27212 -51.79089,-8.45285 -74.23828,7.0176 -4.07907,-0.90352 -8.3802,-1.47261 -13.02734,-1.47266 -9.34669,0.98217 -10.94087,1.52228 -18.14258,2.62305 v -5.73256 c 0,-36.20609 -57.78797,-32.73839 -89.83268,-14.04665 z"
   style="-inkscape-font-specification:'Modak, @wght=428';fill:#868679;fill-opacity:1;stroke-linecap:round;paint-order:stroke fill markers"
   sodipodi:nodetypes="ccczccccccscscscscsscccscscccscccccccscccccccc"
   inkscape:label="Shadow" /><path
   id="logo"
   d="m 346.14293,389.99506 c -7.99981,0 -15.16459,1.73785 -21.49473,5.21599 -6.26077,3.4782 -10.9219,7.86164 -13.98274,13.14846 -2.43463,0 -3.65087,-1.08059 -3.65087,-3.23706 0,-1.87823 1.53127,-4.24274 4.59195,-7.09482 -3.47809,-3.68687 -7.6889,-5.5297 -12.62787,-5.5297 H 280.4073 c -4.1043,6.19111 -6.15707,13.53199 -6.15707,22.01867 0,8.41718 2.05277,15.51072 6.15707,21.28448 v 50.50476 c 0,1.58051 0.22272,3.8313 0.55128,5.2623 1.21043,-0.41231 9.66997,-2.36174 18.03678,-1.97851 7.52844,0.34484 15.5543,1.55604 18.63556,4.00218 1.53751,1.22061 1.41673,3.31031 -0.18416,4.47424 0.2822,0.1179 -8.86469,-3.53355 -19.63902,-3.46526 -14.32905,0.0909 -19.86124,4.03625 -23.76928,7.2806 -7.37377,6.12157 -10.21933,13.77064 -11.88883,25.31818 h -9.07711 c -4.03459,6.19111 -6.05362,13.53192 -6.05362,22.01866 0,8.48673 2.01903,15.61417 6.05362,21.38793 h 17.31993 c 0.86848,3.69211 -1.34483,5.36944 -5.00575,5.49633 h -3.23707 v 48.13871 c 0,17.13581 21.81346,18.36447 28.06897,18.36447 10.3649,0 18.54887,-2.39841 26.13127,-7.19828 V 577.6328 h 16.67798 c 6.69997,-8.32295 9.03518,-27.22461 5.56903,-37.55291 -4.8754,1.36335 -13.32214,1.63622 -20.83088,1.38794 -4.56722,-0.15105 -15.93118,-0.43497 -18.51602,-4.5578 -0.71123,-1.13443 -0.37386,-3.62112 0.11294,-4.10806 3.83908,1.3612 11.26932,2.51066 19.70764,2.51066 8.62586,0 16.22555,-0.39143 21.02542,-2.26968 4.04073,-10.50663 2.70895,-22.21399 1.17959,-27.26124 -7.82815,-7.38205 -10.71644,-17.42404 -10.71644,-29.31508 0,-7.86063 0.17351,-16.58683 1.42577,-23.61273 l -1.35489,-15.2728 c 1.63712,-0.93546 5.46384,-2.65848 7.27012,0.4125 1.69748,3.63291 1.31555,8.09381 0.83429,11.99714 -1.50062,10.01488 -2.18918,18.26513 -2.18918,25.35583 0,26.2768 17.09681,33.07807 30.67528,33.07807 30.10027,0 30.56465,-29.60296 29.63411,-34.22271 -4.58389,-2.86502 -7.51199,-7.59135 -7.51199,-19.30555 l 0.31369,-21.39127 c 0,-15.65174 -4.73247,-27.19989 -14.19299,-34.64319 -8.50332,-6.6924 -19.11439,-8.86686 -29.32041,-8.86686 z m -208.37305,2.82006 c -0.83252,13.26962 2.80203,25.30254 13.54598,32.28374 14.18731,-3.7802 29.23487,0.266 35.35581,3.14504 16.71639,7.86274 22.17461,28.62079 13.37319,29.32571 -2.31865,-12.5387 -9.09869,-25.32959 -33.27162,-27.47828 -17.24206,-1.53263 -32.85462,8.70888 -34.60646,28.32593 -0.78635,8.80543 1.07116,17.78204 6.04027,26.96768 13.36789,9.12762 29.04054,15.73476 57.52618,18.78828 46.82098,5.01893 74.90936,-16.77592 78.07315,-46.28991 1.85084,-17.26636 -2.45011,-30.82374 -12.90484,-40.67679 -8.87949,-8.25531 -20.97079,-13.2032 -36.27507,-14.84375 -4.31653,-0.46273 -7.88626,-0.48867 -10.70899,-0.0767 -0.7013,-5.52629 4.49039,-7.54273 15.5979,-6.35065 13.80263,1.48132 25.14311,6.70643 32.58082,12.9282 5.85106,-5.22956 9.52709,-13.91353 10.60555,-23.97425 0.59732,-5.57229 0.2721,-11.04214 -0.9778,-16.41555 -23.29841,-22.25512 -63.36237,-23.072 -69.93335,-23.05261 -24.25448,0.0716 -61.6698,9.92228 -64.02072,47.39392 z m 308.54495,-16.15541 c -31.98855,4.62739 -54.91571,28.51733 -49.10648,68.67568 4.90118,33.88079 28.79768,56.246 67.21732,50.6883 35.84897,-5.18587 53.61481,-31.66306 48.50247,-67.00374 -5.23711,-36.20317 -31.74762,-57.40393 -66.61331,-52.36024 z M 452.431,415.025 c 4.13973,1.34195 7.38721,25.19206 8.611,35.61086 1.12007,7.74345 -4.8523,6.57358 -5.80949,5.85787 -1.70508,-13.28017 -3.7356,-26.47514 -6.80919,-39.50872 1.04076,-1.21932 2.38652,-2.48553 4.00768,-1.96001 z m -22.8087,103.29101 c -10.24979,1.54056 -17.79067,4.75747 -24.42081,10.25603 l 7.66213,50.97865 c 0.72376,4.81534 1.60048,8.30204 2.62971,10.46871 -0.8597,0.83267 -2.60233,1.61368 -3.42789,1.73776 -2.5453,0.38257 -4.31989,-2.76152 -5.3228,-9.43418 l -5.02244,-33.43513 c -1.23037,-8.18612 -4.5878,-13.90734 -10.07159,-17.16309 -5.42533,-3.33491 -12.40403,-4.35894 -20.93407,-3.07687 l -22.70279,3.4106 c -1.65691,3.48486 -2.66039,7.32986 -3.01346,11.53327 -0.35309,4.20337 -0.24497,8.19697 0.3237,11.98045 1.1063,7.3606 3.87429,13.83726 8.30287,19.43234 3.05145,18.17848 -1.07187,36.56736 10.92204,52.65255 11.99392,16.08518 31.98066,14.33985 40.63061,13.0397 6.41981,-0.96488 13.87425,-1.90967 20.02304,-8.65328 -1.81999,-1.34437 -2.84908,-2.80956 -3.08689,-4.39173 -0.34121,-2.27013 1.40532,-4.16697 3.7443,-4.51853 7.1556,10.86234 19.03353,11.59372 26.16343,10.5221 24.74823,-3.71961 25.91271,-25.45589 22.67277,-38.01372 -5.41831,-2.35112 -8.89811,-8.65524 -10.43869,-18.9051 l -8.0793,-53.76184 c -8.44924,-6.81107 -22.70072,-5.23785 -26.55387,-4.65869 z M 568.08492,396.77619 c -6.8171,4.52164 -11.44117,11.61852 -13.87597,21.28782 -6.00584,-0.62488 -4.17562,-6.86978 -2.63393,-10.53049 1.32163,-2.99125 3.00393,-5.23424 4.74298,-7.18198 -3.54763,-5.28683 -8.82447,-7.85361 -17.03288,-7.85361 h -15.9617 c -4.1043,6.19111 -6.15707,13.53199 -6.15707,22.01867 0,8.41718 2.05277,15.51072 6.15707,21.28448 0,31.91423 0.0267,52.447 0.0267,52.447 5.10426,-0.0485 9.87005,0.50099 14.78428,1.87917 4.93897,1.46085 7.7289,4.197 7.7289,6.28391 0,0.83473 -0.38288,1.6342 -1.148,2.39941 -15.07068,-7.68908 -32.61171,-4.73844 -35.5591,-4.16448 -19.67958,3.83231 -41.65319,19.28848 -41.65319,56.12753 0,12.00881 2.53301,36.79652 21.98506,50.10009 14.41617,9.85945 35.69059,10.58369 44.14342,5.56945 -0.79388,-0.59539 -4.18311,-4.01256 -4.18311,-7.6547 0,-2.29562 1.63523,-3.66715 4.00049,-3.66715 2.95303,7.21883 10.78489,14.2931 23.89416,14.2931 19.51815,0 30.35802,-16.09481 28.48601,-34.22269 -5.00868,-3.13034 -7.51128,-9.87831 -7.51197,-20.2433 l -0.0103,-104.96475 c -7.26871,-1.42211 -9.39544,-3.25079 -9.39544,-5.20067 0,-1.04346 0.80637,-2.37149 1.36287,-2.92801 11.86005,3.77358 31.16019,3.34188 41.21742,-1.98229 2.29254,-4.68498 4.95041,-11.95578 4.78945,-23.12345 -0.10798,-7.49775 -1.14828,-13.8783 -3.12086,-19.13849 -5.49167,-4.11873 -12.9494,-6.30248 -22.3733,-6.55042 -12.51154,-0.32918 -19.24723,3.37006 -22.702,5.71585 z m -40.40337,153.63779 v 16.34661 c 0,0.56149 -6.63321,3.88767 -6.63321,-6.19569 0.012,-4.78301 -0.0296,-9.56624 0.007,-14.34911 0.087,-11.30011 0.90921,-15.9278 4.18447,-16.3769 0.83077,-0.11379 2.28157,-0.0736 3.53882,1.18359 0,0 -1.09711,11.42246 -1.09711,19.3915 z M 647.69984,345.29697 c -3.0348,0 -15.53772,0.40337 -26.29358,6.67767 v 121.77342 c 0,14.10622 13.62184,22.1188 27.23466,22.1188 12.24304,0 20.59059,-2.82296 27.47724,-9.91841 -5.46804,-7.85152 -8.322,-19.98627 -8.322,-28.58125 l 5.46976,-2.61098 c 2.52987,25.71796 15.50262,41.11064 34.64319,41.11064 20.46601,0 29.841,-13.36944 29.841,-27.65183 0,-7.72153 -1.87673,-14.99123 -5.63315,-21.80842 -9.73887,-1.59998 -17.808,-4.27616 -24.20785,-8.03257 9.40414,-3.271 27.65182,-12.4501 27.65182,-34.43295 0,-16.67666 -12.06262,-27.54831 -34.01915,-27.54835 -4.97728,0.38567 -9.88807,1.41002 -14.81703,2.19252 -2.57372,9.87803 -4.3015,18.71598 -7.43189,24.69841 -3.06084,5.98246 -9.281,12.84584 -13.26527,16.21532 -1.66951,-0.83474 -3.09355,-2.27317 -3.09355,-3.24707 0,-3.84963 5.88935,-8.35463 8.55651,-12.20737 3.53661,-8.03365 4.90563,-17.87929 4.90563,-27.13121 v -11.05939 c 0,-14.41975 -13.36159,-20.55698 -28.69634,-20.55698 z m 28.59624,153.98715 c -6.74758,0 -12.17109,0.79947 -16.27539,2.39942 v 7.30506 c -7.16498,-2.57384 -14.61105,-3.86109 -22.33236,-3.86109 -15.99963,0 -29.00787,3.86176 -39.0249,11.58331 -10.0172,7.72153 -15.02395,18.26024 -15.02395,31.61638 0,6.44856 1.46689,20.87885 13.77251,28.48611 -6.85394,3.67759 -8.65998,11.7307 -8.65996,17.00622 3e-5,15.83971 13.58104,22.39546 27.38939,24.96732 9.86651,1.83769 23.37202,2.12206 31.2514,0.38853 0.41759,0.69567 0.85394,2.22409 0.85392,2.91969 0,4.4492 -17.43223,6.00812 -32.12423,3.41905 -7.2629,-1.27991 -15.83633,-3.8357 -21.91132,-8.93873 -6.89701,3.90822 -7.33799,12.80526 -7.33799,15.01759 0,29.46469 44.34907,30.88553 52.90419,30.88553 30.3985,0 58.64081,-12.23649 58.64081,-40.79693 0,-13.86999 -7.01325,-27.4395 -21.96527,-31.31601 -7.65194,3.19991 -17.13034,5.25271 -27.9822,5.25271 -11.32549,0 -12.13729,-3.15731 -12.13729,-4.61532 0,-0.55651 0.10525,-1.14598 0.31369,-1.77204 3.13023,0.62606 6.92109,0.93774 11.37308,0.93774 27.80768,0 48.31225,-12.74747 48.31225,-38.81464 0,-6.81722 -0.90437,-12.52188 -2.71313,-17.11303 4.25424,-7.15471 4.69541,-11.85647 4.69541,-16.79932 0,-12.03426 -6.0729,-18.15755 -22.01866,-18.15755 z m -35.15947,37.10165 c 2.97968,0 3.5661,1.98753 3.48101,5.95975 l -0.25082,11.70874 c -0.15122,7.05853 0.0559,9.26788 -3.39753,9.26788 -1.76579,0 -3.7958,0.02 -3.7958,-1.1542 v -20.81786 c 0,-3.3109 1.20411,-4.96431 3.96314,-4.96431 z M 762.22213,364.58491 c -7.70335,0.56346 -16.0394,2.74089 -23.69447,8.02007 l 6.1037,108.24119 c 1.40898,24.98244 15.50524,34.65977 33.66873,33.63536 31.43714,-1.77304 27.59288,-31.74162 26.92764,-35.79451 -5.17701,-2.84335 -8.05629,-9.4409 -8.63994,-19.78943 L 792.45972,385.66 C 791.2873,364.87212 771.3708,363.91573 762.22213,364.58491 Z M 699.12901,565.0698 c -8.47982,35.8506 9.06583,64.11987 47.14757,73.12746 26.06028,6.16413 39.31373,1.2908 48.14873,-3.19702 4.579,-8.85506 5.05336,-22.74778 2.00897,-27.0144 -13.32225,5.29759 -30.63678,2.44582 -35.89797,1.20137 -13.80646,-3.26567 -23.57073,-11.41822 -22.64604,-15.32763 0.25619,-1.08308 0.70428,-1.76392 1.34153,-2.04234 5.68949,5.56322 13.26364,9.02925 22.87633,11.30299 17.95202,4.24623 43.96055,4.87273 50.79177,-24.00761 5.57477,-23.56874 -7.50384,-50.56188 -42.68912,-58.88441 -20.91342,-4.94675 -60.04942,-1.80018 -71.08177,44.84159 z m 62.41657,-6.3521 c 2.27799,0.002 11.0812,1.78856 9.72469,8.59775 -0.86385,4.33629 -4.3589,5.78599 -10.02057,4.44682 -4.0761,-0.96415 -7.47062,-2.78145 -10.18587,-5.45626 2.12861,-5.45987 5.60479,-7.59457 10.48175,-7.58831 z m 94.22363,-179.04119 c -32.23738,2.64657 -56.90679,26.09972 -53.74517,64.61101 3.01377,36.71073 28.43075,58.18219 67.43758,54.97991 26.71071,-2.19281 37.83293,-10.96238 44.80489,-17.91729 1.51043,-9.18099 -1.68284,-22.2725 -6.45076,-25.79968 -9.3774,6.67946 -21.30117,10.75026 -32.64841,11.82459 -14.14932,1.16162 -27.05193,-3.67904 -27.38064,-7.68315 -0.0911,-1.10925 0.1237,-1.89447 0.64407,-2.35605 7.13022,3.53266 15.61763,4.89627 25.46262,4.08804 13.66007,-1.12143 43.27567,-7.20057 40.67013,-38.93813 -2.02666,-24.68686 -23.38973,-45.71558 -58.79431,-42.80925 z m 5.62218,38.96064 c 2.01516,-0.10508 9.41544,0.0725 9.87725,5.57787 0.37475,4.46729 -2.39605,6.94284 -8.27481,7.42546 -4.23286,0.34752 -8.07147,-0.34241 -11.52783,-2.0709 0.39069,-6.77922 3.6813,-10.60669 9.92539,-10.93243 z"
   style="-inkscape-font-specification:'Modak, @wght=428';display:inline;fill:#f5f5f5;fill-opacity:1;stroke-width:14;paint-order:stroke fill markers"
   inkscape:label="Logo"
   sodipodi:nodetypes="sccscscscscsscssccsccscssccccsscsccscccsssccccsscscsscsscscscscsssssssscccsscscscccccsscsscscscccsccccscscccscssscscscccsccscscssssscssscccssccsscccscssssssssscsscsscssscsscsscssssscssssscscccsscsssscsssscssscssssccscsssssscsssc" /></g></svg>
