<?xml version="1.0" encoding="UTF-8" standalone="no"?>
<!-- Created with Inkscape (http://www.inkscape.org/) -->

<svg
   width="1024"
   height="1024"
   viewBox="0 0 1024 1024"
   version="1.1"
   id="svg1"
   inkscape:version="1.4 (86a8ad7, 2024-10-11)"
   sodipodi:docname="logo_snorklefudge.svg"
   inkscape:export-filename="logo_snorklefudge.png"
   inkscape:export-xdpi="48"
   inkscape:export-ydpi="48"
   xml:space="preserve"
   xmlns:inkscape="http://www.inkscape.org/namespaces/inkscape"
   xmlns:sodipodi="http://sodipodi.sourceforge.net/DTD/sodipodi-0.dtd"
   xmlns="http://www.w3.org/2000/svg"
   xmlns:svg="http://www.w3.org/2000/svg"><sodipodi:namedview
     id="namedview1"
     pagecolor="#505050"
     bordercolor="#eeeeee"
     borderopacity="1"
     inkscape:showpageshadow="false"
     inkscape:pageopacity="0"
     inkscape:pagecheckerboard="true"
     inkscape:deskcolor="#d1d1d1"
     inkscape:document-units="px"
     showborder="true"
     inkscape:clip-to-page="false"
     inkscape:zoom="0.50818508"
     inkscape:cx="-168.24579"
     inkscape:cy="1304.6428"
     inkscape:window-width="2241"
     inkscape:window-height="1360"
     inkscape:window-x="1179"
     inkscape:window-y="0"
     inkscape:window-maximized="0"
     inkscape:current-layer="layer5"
     showguides="true"
     inkscape:lockguides="false" /><defs
     id="defs1"><inkscape:path-effect
       effect="envelope"
       id="path-effect10"
       is_visible="true"
       lpeversion="1"
       yy="true"
       xx="true"
       bendpath1="m 141.56804,377.54538 c 30.58117,-1.66687 42.05112,0.78484 106.20088,0"
       bendpath2="m 247.76892,377.54538 c 2.44223,26.21263 1.70378,66.56781 0,106.20088"
       bendpath3="m 141.56804,483.74626 c 20.36454,3.36303 33.00149,2.49778 106.20088,0"
       bendpath4="m 141.56804,377.54538 c -0.006,35.29007 -2.06492,38.60023 0,106.20088"
       bendpath1-nodetypes="cc"
       bendpath2-nodetypes="cc"
       bendpath3-nodetypes="cc"
       bendpath4-nodetypes="cc" /><inkscape:path-effect
       effect="fillet_chamfer"
       id="path-effect9"
       is_visible="true"
       lpeversion="1"
       nodesatellites_param="F,0,0,1,0,18,0,1 @ F,0,0,1,0,18,0,1 @ F,0,0,1,0,18,0,1 @ F,0,0,1,0,18,0,1"
       radius="19"
       unit="px"
       method="auto"
       mode="F"
       chamfer_steps="1"
       flexible="false"
       use_knot_distance="true"
       apply_no_radius="true"
       apply_with_radius="true"
       only_selected="false"
       hide_knots="false" /><rect
       x="1051.7822"
       y="-579.51329"
       width="632.64354"
       height="454.55881"
       id="rect8" /><rect
       x="274.67927"
       y="193.89125"
       width="222.74411"
       height="128.10672"
       id="rect2" /></defs><g
     inkscape:groupmode="layer"
     id="layer5"
     inkscape:label="Logotype"
     style="display:inline">
       
       <path
   id="shadow"
   d="m 593.56053,352.23438 v 32.04493 c -20.26828,-1.17834 -31.61821,8.40888 -33.37921,10 -2.32652,-2.79183 -10.27352,-8.87021 -20.8695,-8.78182 -10.59598,0.0884 -40.38473,-0.002 -40.38473,-0.002 -26.59742,-26.98673 -90.08128,-20.22868 -115.49253,11.15199 -16.05612,-16.18838 -48.71344,-18.97939 -67.27537,-3.88239 -3.41569,-3.41933 -10.03887,-7.26954 -17.30372,-7.26954 h -19.19238 c 0.73565,-10.35921 -0.15204,-14.43086 -1.5997,-20.64447 -42.05316,-40.65038 -160.08145,-39.89435 -168.06894,34.61945 -1.93101,18.01426 5.09588,30.66895 9.52344,36.67588 -8.45927,7.27454 -13.92161,17.68112 -15.12695,28.92579 -1.59391,13.48155 2.87952,26.18417 9.1875,37.84765 22.00469,15.89641 45.3157,20.68667 66.51367,22.95899 22.58454,2.42092 42.77534,-0.82532 59.59766,-10.03516 -16.42846,11.06082 -20.52344,27.673 -20.52344,41.48828 -0.21273,14.20217 5.714,27.03724 15.13086,37.32031 v 37.70313 c 0,10.59829 8.07955,30.12305 42.13672,30.12305 10.4991,0 33.92249,-5.48056 46.91209,-21.11329 l 6e-5,-45.16021 h 10.09961 c -2.38477,19.43267 -2.41136,34.73223 12.17382,49.27148 21.72029,21.65186 59.65586,14.22775 71.79102,7.35156 5.24941,2.11312 12.91789,3.89525 22.46094,2.46094 17.93395,-2.46566 29.30688,-15.17394 37.97851,-29.77344 17.19863,7.7216 35.1356,7.05466 46.78125,1.35743 6.9545,3.38316 20.7446,7.69292 37.07031,0.0801 -5.72343,14.57304 -4.65715,57.3086 63.89258,57.3086 40.11598,0 61.7104,-17.59786 74.94532,-42.56641 42.13505,32.40824 85.66957,10.51228 99.06445,-1.47461 7.16292,-13.90614 6.84541,-24.8638 3.64067,-34.11723 28.58681,-21.24195 22.49369,-68.30596 -14.18552,-86.53707 9.69097,-2.55843 15.55557,-8.30719 19.08013,-14.73432 7.52837,8.3274 76.06264,31.32244 112.66221,-20.11708 1.41325,-11.74947 0.8149,-24.55823 -7.73223,-33.61915 15.89811,-21.39547 6.44412,-44.56313 -0.57026,-54.58605 -27.22278,-38.89895 -92.02538,-23.71865 -112.7892,-6.5293 -0.29398,-10.14037 -2.40507,-19.05232 -10.90828,-26.1348 -13.17193,-10.27212 -51.79089,-8.45285 -74.23828,7.0176 -4.07907,-0.90352 -8.3802,-1.47261 -13.02734,-1.47266 -9.34669,0.98217 -10.94087,1.52228 -18.14258,2.62305 v -5.73256 c 0,-36.20609 -57.78797,-32.73839 -89.83268,-14.04665 z"
   style="-inkscape-font-specification:'Modak, @wght=428';fill:#868679;stroke-linecap:round;paint-order:stroke fill markers;fill-opacity:1"
   sodipodi:nodetypes="ccczccccccscscscscsscccscscccscccccccscccccccc"
   inkscape:label="Shadow" /><path
   id="logo"
   d="m 346.14293,389.99506 c -7.99981,0 -15.16459,1.73785 -21.49473,5.21599 -6.26077,3.4782 -10.9219,7.86164 -13.98274,13.14846 -2.43463,0 -3.65087,-1.08059 -3.65087,-3.23706 0,-1.87823 1.53127,-4.24274 4.59195,-7.09482 -3.47809,-3.68687 -7.6889,-5.5297 -12.62787,-5.5297 H 280.4073 c -4.1043,6.19111 -6.15707,13.53199 -6.15707,22.01867 0,8.41718 2.05277,15.51072 6.15707,21.28448 v 50.50476 c 0,1.58051 0.22272,3.8313 0.55128,5.2623 1.21043,-0.41231 9.66997,-2.36174 18.03678,-1.97851 7.52844,0.34484 15.5543,1.55604 18.63556,4.00218 1.53751,1.22061 1.41673,3.31031 -0.18416,4.47424 0.2822,0.1179 -8.86469,-3.53355 -19.63902,-3.46526 -14.32905,0.0909 -19.86124,4.03625 -23.76928,7.2806 -7.37377,6.12157 -10.21933,13.77064 -11.88883,25.31818 h -9.07711 c -4.03459,6.19111 -6.05362,13.53192 -6.05362,22.01866 0,8.48673 2.01903,15.61417 6.05362,21.38793 h 17.31993 c 0.86848,3.69211 -1.34483,5.36944 -5.00575,5.49633 h -3.23707 v 48.13871 c 0,17.13581 21.81346,18.36447 28.06897,18.36447 10.3649,0 18.54887,-2.39841 26.13127,-7.19828 V 577.6328 h 16.67798 c 6.69997,-8.32295 9.03518,-27.22461 5.56903,-37.55291 -4.8754,1.36335 -13.32214,1.63622 -20.83088,1.38794 -4.56722,-0.15105 -15.93118,-0.43497 -18.51602,-4.5578 -0.71123,-1.13443 -0.37386,-3.62112 0.11294,-4.10806 3.83908,1.3612 11.26932,2.51066 19.70764,2.51066 8.62586,0 16.22555,-0.39143 21.02542,-2.26968 4.04073,-10.50663 2.70895,-22.21399 1.17959,-27.26124 -7.82815,-7.38205 -10.71644,-17.42404 -10.71644,-29.31508 0,-7.86063 0.17351,-16.58683 1.42577,-23.61273 l -1.35489,-15.2728 c 1.63712,-0.93546 5.46384,-2.65848 7.27012,0.4125 1.69748,3.63291 1.31555,8.09381 0.83429,11.99714 -1.50062,10.01488 -2.18918,18.26513 -2.18918,25.35583 0,26.2768 17.09681,33.07807 30.67528,33.07807 30.10027,0 30.56465,-29.60296 29.63411,-34.22271 -4.58389,-2.86502 -7.51199,-7.59135 -7.51199,-19.30555 l 0.31369,-21.39127 c 0,-15.65174 -4.73247,-27.19989 -14.19299,-34.64319 -8.50332,-6.6924 -19.11439,-8.86686 -29.32041,-8.86686 z m -208.37305,2.82006 c -0.83252,13.26962 2.80203,25.30254 13.54598,32.28374 14.18731,-3.7802 29.23487,0.266 35.35581,3.14504 16.71639,7.86274 22.17461,28.62079 13.37319,29.32571 -2.31865,-12.5387 -9.09869,-25.32959 -33.27162,-27.47828 -17.24206,-1.53263 -32.85462,8.70888 -34.60646,28.32593 -0.78635,8.80543 1.07116,17.78204 6.04027,26.96768 13.36789,9.12762 29.04054,15.73476 57.52618,18.78828 46.82098,5.01893 74.90936,-16.77592 78.07315,-46.28991 1.85084,-17.26636 -2.45011,-30.82374 -12.90484,-40.67679 -8.87949,-8.25531 -20.97079,-13.2032 -36.27507,-14.84375 -4.31653,-0.46273 -7.88626,-0.48867 -10.70899,-0.0767 -0.7013,-5.52629 4.49039,-7.54273 15.5979,-6.35065 13.80263,1.48132 25.14311,6.70643 32.58082,12.9282 5.85106,-5.22956 9.52709,-13.91353 10.60555,-23.97425 0.59732,-5.57229 0.2721,-11.04214 -0.9778,-16.41555 -23.29841,-22.25512 -63.36237,-23.072 -69.93335,-23.05261 -24.25448,0.0716 -61.6698,9.92228 -64.02072,47.39392 z m 308.54495,-16.15541 c -31.98855,4.62739 -54.91571,28.51733 -49.10648,68.67568 4.90118,33.88079 28.79768,56.246 67.21732,50.6883 35.84897,-5.18587 53.61481,-31.66306 48.50247,-67.00374 -5.23711,-36.20317 -31.74762,-57.40393 -66.61331,-52.36024 z M 452.431,415.025 c 4.13973,1.34195 7.38721,25.19206 8.611,35.61086 1.12007,7.74345 -4.8523,6.57358 -5.80949,5.85787 -1.70508,-13.28017 -3.7356,-26.47514 -6.80919,-39.50872 1.04076,-1.21932 2.38652,-2.48553 4.00768,-1.96001 z m -22.8087,103.29101 c -10.24979,1.54056 -17.79067,4.75747 -24.42081,10.25603 l 7.66213,50.97865 c 0.72376,4.81534 1.60048,8.30204 2.62971,10.46871 -0.8597,0.83267 -2.60233,1.61368 -3.42789,1.73776 -2.5453,0.38257 -4.31989,-2.76152 -5.3228,-9.43418 l -5.02244,-33.43513 c -1.23037,-8.18612 -4.5878,-13.90734 -10.07159,-17.16309 -5.42533,-3.33491 -12.40403,-4.35894 -20.93407,-3.07687 l -22.70279,3.4106 c -1.65691,3.48486 -2.66039,7.32986 -3.01346,11.53327 -0.35309,4.20337 -0.24497,8.19697 0.3237,11.98045 1.1063,7.3606 3.87429,13.83726 8.30287,19.43234 3.05145,18.17848 -1.07187,36.56736 10.92204,52.65255 11.99392,16.08518 31.98066,14.33985 40.63061,13.0397 6.41981,-0.96488 13.87425,-1.90967 20.02304,-8.65328 -1.81999,-1.34437 -2.84908,-2.80956 -3.08689,-4.39173 -0.34121,-2.27013 1.40532,-4.16697 3.7443,-4.51853 7.1556,10.86234 19.03353,11.59372 26.16343,10.5221 24.74823,-3.71961 25.91271,-25.45589 22.67277,-38.01372 -5.41831,-2.35112 -8.89811,-8.65524 -10.43869,-18.9051 l -8.0793,-53.76184 c -8.44924,-6.81107 -22.70072,-5.23785 -26.55387,-4.65869 z M 568.08492,396.77619 c -6.8171,4.52164 -11.44117,11.61852 -13.87597,21.28782 -6.00584,-0.62488 -4.17562,-6.86978 -2.63393,-10.53049 1.32163,-2.99125 3.00393,-5.23424 4.74298,-7.18198 -3.54763,-5.28683 -8.82447,-7.85361 -17.03288,-7.85361 h -15.9617 c -4.1043,6.19111 -6.15707,13.53199 -6.15707,22.01867 0,8.41718 2.05277,15.51072 6.15707,21.28448 0,31.91423 0.0267,52.447 0.0267,52.447 5.10426,-0.0485 9.87005,0.50099 14.78428,1.87917 4.93897,1.46085 7.7289,4.197 7.7289,6.28391 0,0.83473 -0.38288,1.6342 -1.148,2.39941 -15.07068,-7.68908 -32.61171,-4.73844 -35.5591,-4.16448 -19.67958,3.83231 -41.65319,19.28848 -41.65319,56.12753 0,12.00881 2.53301,36.79652 21.98506,50.10009 14.41617,9.85945 35.69059,10.58369 44.14342,5.56945 -0.79388,-0.59539 -4.18311,-4.01256 -4.18311,-7.6547 0,-2.29562 1.63523,-3.66715 4.00049,-3.66715 2.95303,7.21883 10.78489,14.2931 23.89416,14.2931 19.51815,0 30.35802,-16.09481 28.48601,-34.22269 -5.00868,-3.13034 -7.51128,-9.87831 -7.51197,-20.2433 l -0.0103,-104.96475 c -7.26871,-1.42211 -9.39544,-3.25079 -9.39544,-5.20067 0,-1.04346 0.80637,-2.37149 1.36287,-2.92801 11.86005,3.77358 31.16019,3.34188 41.21742,-1.98229 2.29254,-4.68498 4.95041,-11.95578 4.78945,-23.12345 -0.10798,-7.49775 -1.14828,-13.8783 -3.12086,-19.13849 -5.49167,-4.11873 -12.9494,-6.30248 -22.3733,-6.55042 -12.51154,-0.32918 -19.24723,3.37006 -22.702,5.71585 z m -40.40337,153.63779 v 16.34661 c 0,0.56149 -6.63321,3.88767 -6.63321,-6.19569 0.012,-4.78301 -0.0296,-9.56624 0.007,-14.34911 0.087,-11.30011 0.90921,-15.9278 4.18447,-16.3769 0.83077,-0.11379 2.28157,-0.0736 3.53882,1.18359 0,0 -1.09711,11.42246 -1.09711,19.3915 z M 647.69984,345.29697 c -3.0348,0 -15.53772,0.40337 -26.29358,6.67767 v 121.77342 c 0,14.10622 13.62184,22.1188 27.23466,22.1188 12.24304,0 20.59059,-2.82296 27.47724,-9.91841 -5.46804,-7.85152 -8.322,-19.98627 -8.322,-28.58125 l 5.46976,-2.61098 c 2.52987,25.71796 15.50262,41.11064 34.64319,41.11064 20.46601,0 29.841,-13.36944 29.841,-27.65183 0,-7.72153 -1.87673,-14.99123 -5.63315,-21.80842 -9.73887,-1.59998 -17.808,-4.27616 -24.20785,-8.03257 9.40414,-3.271 27.65182,-12.4501 27.65182,-34.43295 0,-16.67666 -12.06262,-27.54831 -34.01915,-27.54835 -4.97728,0.38567 -9.88807,1.41002 -14.81703,2.19252 -2.57372,9.87803 -4.3015,18.71598 -7.43189,24.69841 -3.06084,5.98246 -9.281,12.84584 -13.26527,16.21532 -1.66951,-0.83474 -3.09355,-2.27317 -3.09355,-3.24707 0,-3.84963 5.88935,-8.35463 8.55651,-12.20737 3.53661,-8.03365 4.90563,-17.87929 4.90563,-27.13121 v -11.05939 c 0,-14.41975 -13.36159,-20.55698 -28.69634,-20.55698 z m 28.59624,153.98715 c -6.74758,0 -12.17109,0.79947 -16.27539,2.39942 v 7.30506 c -7.16498,-2.57384 -14.61105,-3.86109 -22.33236,-3.86109 -15.99963,0 -29.00787,3.86176 -39.0249,11.58331 -10.0172,7.72153 -15.02395,18.26024 -15.02395,31.61638 0,6.44856 1.46689,20.87885 13.77251,28.48611 -6.85394,3.67759 -8.65998,11.7307 -8.65996,17.00622 3e-5,15.83971 13.58104,22.39546 27.38939,24.96732 9.86651,1.83769 23.37202,2.12206 31.2514,0.38853 0.41759,0.69567 0.85394,2.22409 0.85392,2.91969 0,4.4492 -17.43223,6.00812 -32.12423,3.41905 -7.2629,-1.27991 -15.83633,-3.8357 -21.91132,-8.93873 -6.89701,3.90822 -7.33799,12.80526 -7.33799,15.01759 0,29.46469 44.34907,30.88553 52.90419,30.88553 30.3985,0 58.64081,-12.23649 58.64081,-40.79693 0,-13.86999 -7.01325,-27.4395 -21.96527,-31.31601 -7.65194,3.19991 -17.13034,5.25271 -27.9822,5.25271 -11.32549,0 -12.13729,-3.15731 -12.13729,-4.61532 0,-0.55651 0.10525,-1.14598 0.31369,-1.77204 3.13023,0.62606 6.92109,0.93774 11.37308,0.93774 27.80768,0 48.31225,-12.74747 48.31225,-38.81464 0,-6.81722 -0.90437,-12.52188 -2.71313,-17.11303 4.25424,-7.15471 4.69541,-11.85647 4.69541,-16.79932 0,-12.03426 -6.0729,-18.15755 -22.01866,-18.15755 z m -35.15947,37.10165 c 2.97968,0 3.5661,1.98753 3.48101,5.95975 l -0.25082,11.70874 c -0.15122,7.05853 0.0559,9.26788 -3.39753,9.26788 -1.76579,0 -3.7958,0.02 -3.7958,-1.1542 v -20.81786 c 0,-3.3109 1.20411,-4.96431 3.96314,-4.96431 z M 762.22213,364.58491 c -7.70335,0.56346 -16.0394,2.74089 -23.69447,8.02007 l 6.1037,108.24119 c 1.40898,24.98244 15.50524,34.65977 33.66873,33.63536 31.43714,-1.77304 27.59288,-31.74162 26.92764,-35.79451 -5.17701,-2.84335 -8.05629,-9.4409 -8.63994,-19.78943 L 792.45972,385.66 C 791.2873,364.87212 771.3708,363.91573 762.22213,364.58491 Z M 699.12901,565.0698 c -8.47982,35.8506 9.06583,64.11987 47.14757,73.12746 26.06028,6.16413 39.31373,1.2908 48.14873,-3.19702 4.579,-8.85506 5.05336,-22.74778 2.00897,-27.0144 -13.32225,5.29759 -30.63678,2.44582 -35.89797,1.20137 -13.80646,-3.26567 -23.57073,-11.41822 -22.64604,-15.32763 0.25619,-1.08308 0.70428,-1.76392 1.34153,-2.04234 5.68949,5.56322 13.26364,9.02925 22.87633,11.30299 17.95202,4.24623 43.96055,4.87273 50.79177,-24.00761 5.57477,-23.56874 -7.50384,-50.56188 -42.68912,-58.88441 -20.91342,-4.94675 -60.04942,-1.80018 -71.08177,44.84159 z m 62.41657,-6.3521 c 2.27799,0.002 11.0812,1.78856 9.72469,8.59775 -0.86385,4.33629 -4.3589,5.78599 -10.02057,4.44682 -4.0761,-0.96415 -7.47062,-2.78145 -10.18587,-5.45626 2.12861,-5.45987 5.60479,-7.59457 10.48175,-7.58831 z m 94.22363,-179.04119 c -32.23738,2.64657 -56.90679,26.09972 -53.74517,64.61101 3.01377,36.71073 28.43075,58.18219 67.43758,54.97991 26.71071,-2.19281 37.83293,-10.96238 44.80489,-17.91729 1.51043,-9.18099 -1.68284,-22.2725 -6.45076,-25.79968 -9.3774,6.67946 -21.30117,10.75026 -32.64841,11.82459 -14.14932,1.16162 -27.05193,-3.67904 -27.38064,-7.68315 -0.0911,-1.10925 0.1237,-1.89447 0.64407,-2.35605 7.13022,3.53266 15.61763,4.89627 25.46262,4.08804 13.66007,-1.12143 43.27567,-7.20057 40.67013,-38.93813 -2.02666,-24.68686 -23.38973,-45.71558 -58.79431,-42.80925 z m 5.62218,38.96064 c 2.01516,-0.10508 9.41544,0.0725 9.87725,5.57787 0.37475,4.46729 -2.39605,6.94284 -8.27481,7.42546 -4.23286,0.34752 -8.07147,-0.34241 -11.52783,-2.0709 0.39069,-6.77922 3.6813,-10.60669 9.92539,-10.93243 z"
   style="-inkscape-font-specification:'Modak, @wght=428';display:inline;fill:#f5f5f5;stroke-width:14;paint-order:stroke fill markers;fill-opacity:1"
   inkscape:label="Logo"
   sodipodi:nodetypes="sccscscscscsscssccsccscssccccsscsccscccsssccccsscscsscsscscscscsssssssscccsscscscccccsscsscscscccsccccscscccscssscscscccsccscscssssscssscccssccsscccscssssssssscsscsscssscsscsscssssscssssscscccsscsssscsssscssscssssccscsssssscsssc" /></g></svg>
